<?xml version="1.0" standalone="no"?>
<!DOCTYPE svg PUBLIC "-//W3C//DTD SVG 20010904//EN"
 "http://www.w3.org/TR/2001/REC-SVG-20010904/DTD/svg10.dtd">
<svg version="1.0" xmlns="http://www.w3.org/2000/svg"
 width="8000.000000pt" height="5714.000000pt" viewBox="0 0 8000.000000 5714.000000"
 preserveAspectRatio="xMidYMid meet">

<g transform="translate(0.000000,5714.000000) scale(0.100000,-0.100000)"
fill="#000000" stroke="none">
<path d="M0 28570 l0 -28570 9186 0 c8737 0 9187 1 9200 18 13 16 15 16 28 -1
13 -16 1491 -17 30800 -17 l30786 0 0 28570 0 28570 -1712 0 -1711 0 20 -22
c32 -36 48 -71 34 -76 -6 -2 -25 -15 -40 -28 -16 -13 -37 -24 -47 -24 -30 0
-68 65 -67 111 l2 39 -15110 0 c-13148 0 -15109 -2 -15109 -14 0 -8 5 -18 10
-21 17 -11 11 -25 -10 -25 -15 0 -22 9 -26 30 l-6 30 -23114 0 -23114 0 0
-28570z m50490 28325 c24 -46 25 -55 6 -55 -14 0 -86 74 -86 88 0 37 56 14 80
-33z m-1673 13 c37 -36 44 -68 14 -68 -21 0 -81 63 -81 85 0 25 32 17 67 -17z
m10223 -48 c22 -22 26 -45 10 -55 -13 -8 -60 39 -60 60 0 21 26 19 50 -5z
m-2699 -177 c12 -33 -3 -53 -28 -37 -29 18 -56 62 -50 79 6 14 9 14 37 0 17
-9 35 -28 41 -42z m-48367 -102 c9 -10 21 -32 26 -50 7 -26 5 -33 -10 -41 -27
-14 -27 -14 -55 31 -28 44 -26 79 4 79 10 0 25 -8 35 -19z m27700 -107 c9 -8
16 -19 16 -23 0 -9 -22 -31 -32 -31 -7 0 -38 52 -38 65 0 11 40 4 54 -11z
m4694 -11 c15 -21 16 -50 0 -59 -14 -9 -68 49 -68 72 0 21 49 11 68 -13z
m18184 -13 c12 -21 25 -30 43 -30 26 0 26 -1 19 -47 -3 -27 -8 -51 -11 -55
-10 -18 -43 -6 -67 23 -20 23 -26 42 -26 78 0 69 14 80 42 31z m-39665 -12
c14 -27 8 -58 -10 -58 -17 0 -57 42 -57 60 0 40 48 39 67 -2z m57569 -93 c3
-14 23 -40 44 -58 35 -29 45 -49 41 -84 0 -7 -26 -24 -56 -38 -51 -25 -55 -25
-79 -9 -25 16 -40 52 -52 125 -6 34 -3 39 32 63 48 32 62 33 70 1z m2816 -60
c29 -27 28 -53 -4 -82 -19 -17 -21 -17 -44 10 -18 21 -22 35 -18 55 13 51 25
55 66 17z m-14297 -95 c3 -5 -1 -10 -9 -10 -9 0 -16 5 -16 10 0 6 4 10 9 10 6
0 13 -4 16 -10z m-1861 -26 c22 -21 20 -44 -4 -44 -21 0 -45 34 -35 50 9 14
21 12 39 -6z m-4549 -29 c29 -28 31 -43 8 -52 -19 -7 -53 29 -53 58 0 26 16
24 45 -6z m243 -367 c15 -15 16 -48 0 -48 -16 0 -48 31 -48 47 0 16 32 17 48
1z m11820 -240 c17 -17 15 -38 -3 -38 -16 0 -38 34 -28 44 9 9 18 7 31 -6z
m-54769 -119 c45 -61 0 -95 -50 -37 -33 38 -36 53 -12 66 22 13 36 7 62 -29z
m18997 -84 c16 -24 12 -45 -8 -45 -15 0 -37 31 -38 53 0 25 27 21 46 -8z
m36854 -135 c17 -17 19 -50 2 -50 -14 0 -42 35 -42 52 0 23 15 23 40 -2z
m-954 -122 c7 -24 2 -30 -19 -22 -18 6 -30 31 -22 44 9 14 34 0 41 -22z
m-19598 0 c2 -13 -3 -18 -17 -18 -12 0 -21 2 -21 4 0 2 -3 12 -6 21 -5 13 -2
16 17 13 13 -1 25 -11 27 -20z m12831 -130 c35 -38 39 -58 12 -58 -24 0 -65
55 -57 75 8 21 11 19 45 -17z m-16117 -35 c24 -21 23 -43 -2 -43 -18 0 -40 26
-40 49 0 16 21 13 42 -6z m13645 -13 c3 -10 14 -22 24 -25 28 -9 28 -85 0 -85
-22 0 -78 101 -66 119 10 18 37 12 42 -9z m-16373 -120 c21 -8 26 -16 26 -45
0 -43 -19 -46 -55 -8 -44 49 -30 76 29 53z m22004 -23 c2 -10 -3 -17 -12 -17
-9 0 -16 2 -16 4 0 2 -3 12 -6 21 -5 13 -2 16 12 13 10 -2 20 -11 22 -21z
m-11712 -27 c21 -13 35 -32 39 -51 15 -66 -47 -67 -83 -1 -37 67 -18 90 44 52z
m-274 -154 c12 -18 9 -46 -5 -46 -22 0 -60 47 -53 65 5 13 10 14 28 4 13 -7
26 -17 30 -23z m9286 -1 c20 -14 42 -25 49 -25 12 0 11 -17 -3 -87 -9 -45 -70
-17 -103 48 -30 58 -27 84 12 88 4 1 25 -10 45 -24z m-53164 -10 c28 -18 51
-68 42 -90 -3 -8 -16 -15 -29 -15 -33 0 -81 73 -67 101 13 23 23 24 54 4z
m52966 -147 c45 -33 52 -110 9 -93 -22 9 -71 84 -65 100 7 20 22 19 56 -7z
m-36311 -74 c26 -34 27 -70 2 -77 -10 -2 -23 -2 -28 2 -16 11 -53 82 -48 92
12 18 54 9 74 -17z m-11264 -30 c33 -36 34 -74 1 -74 -37 0 -82 71 -59 93 13
14 34 6 58 -19z m5869 -63 c9 -16 12 -31 9 -35 -12 -12 -40 -6 -58 14 -15 16
-15 22 -5 35 19 23 38 18 54 -14z m-12056 -269 c2 -14 -2 -22 -12 -22 -19 0
-29 17 -22 36 8 22 30 12 34 -14z m46326 -1 c3 -4 18 -11 33 -14 19 -5 33 -17
44 -42 16 -34 16 -38 -4 -85 -12 -28 -27 -50 -34 -50 -21 0 -83 61 -99 98 -14
35 -11 65 8 90 12 14 44 16 52 3z m-132 -47 c18 -39 -3 -50 -35 -18 -27 26
-33 45 -21 57 11 11 44 -13 56 -39z m12540 -111 c29 -30 41 -83 21 -90 -7 -2
-26 15 -42 38 -51 69 -34 109 21 52z m7691 -24 c22 -39 22 -49 -2 -49 -22 0
-55 46 -47 66 9 23 30 16 49 -17z m-53933 -39 c0 -5 -2 -10 -4 -10 -3 0 -8 5
-11 10 -3 6 -1 10 4 10 6 0 11 -4 11 -10z m34101 -141 c8 -16 8 -24 -1 -33 -9
-8 -16 -5 -31 13 -10 12 -16 27 -13 32 9 16 33 10 45 -12z m-14348 -116 c18
-17 19 -17 32 0 6 9 17 17 23 17 21 0 47 -54 49 -100 1 -25 3 -56 5 -70 3 -27
-5 -29 -72 -13 -28 7 -40 19 -62 58 -48 87 -31 158 25 108z m-27571 -118 c13
-30 -1 -51 -27 -42 -16 7 -36 47 -28 60 10 17 44 6 55 -18z m302 -17 c20 -40
20 -45 -3 -57 -16 -9 -23 -5 -46 25 -30 40 -27 64 9 64 18 0 29 -9 40 -32z
m43163 -400 c46 -32 57 -78 18 -78 -19 0 -65 57 -65 81 0 24 6 24 47 -3z
m-3239 -136 c2 -7 -2 -10 -12 -6 -9 3 -16 11 -16 16 0 13 23 5 28 -10z m654
-79 c18 -16 24 -44 11 -56 -10 -11 -53 34 -53 55 0 22 18 23 42 1z m-1917 -23
c3 -5 2 -10 -4 -10 -5 0 -13 5 -16 10 -3 6 -2 10 4 10 5 0 13 -4 16 -10z
m-32486 -13 c6 -8 14 -28 17 -45 6 -29 4 -32 -17 -32 -18 0 -30 10 -43 34 -10
19 -15 39 -12 45 10 15 41 14 55 -2z m29591 -92 c7 -9 20 -13 29 -10 28 8 44
-12 49 -64 6 -64 -12 -75 -66 -38 -53 37 -80 127 -38 127 8 0 19 -7 26 -15z
m-8316 -176 c27 -21 34 -53 15 -65 -16 -10 -73 51 -66 70 8 21 19 20 51 -5z
m-25598 -30 c30 -48 26 -69 -14 -69 -20 0 -35 9 -50 30 -27 35 -28 56 -4 69
29 18 41 12 68 -30z m38729 2 c17 -7 37 -17 45 -21 9 -4 17 -27 21 -56 10 -85
-5 -94 -68 -39 -31 26 -43 45 -48 75 -6 38 -1 64 13 57 4 -2 21 -9 37 -16z
m2145 -121 c11 -21 6 -40 -10 -40 -14 0 -40 30 -40 46 0 21 38 17 50 -6z
m10902 -47 c19 -17 24 -48 9 -57 -11 -7 -41 37 -41 59 0 19 9 19 32 -2z m107
-35 c12 -31 -4 -47 -25 -26 -17 17 -13 48 6 48 6 0 15 -10 19 -22z m8469 -61
c6 -6 13 -24 17 -40 5 -20 13 -27 30 -27 40 0 40 -21 2 -57 -47 -42 -70 -42
-96 1 -26 42 -26 70 0 107 23 32 31 35 47 16z m-38914 -16 c32 -36 -9 -58 -46
-24 -10 9 -18 22 -18 30 0 20 44 16 64 -6z m30476 -161 c0 -6 -9 -10 -20 -10
-25 0 -54 44 -45 67 6 16 10 14 36 -15 16 -18 29 -37 29 -42z m-20458 13 c21
-19 24 -63 5 -63 -21 0 -60 47 -54 64 8 21 26 20 49 -1z m-37761 -94 c25 -32
30 -45 22 -58 -16 -26 -49 -24 -77 4 -29 29 -30 33 -16 69 14 37 33 32 71 -15z
m59675 -54 c4 -14 3 -29 0 -32 -10 -10 -49 34 -42 46 13 20 35 12 42 -14z
m-11147 -11 c21 -15 51 -70 51 -94 0 -23 -37 -7 -67 30 -32 38 -40 60 -26 73
10 10 16 9 42 -9z m-7458 -117 c35 -26 44 -77 15 -77 -25 0 -66 41 -66 66 0
27 24 32 51 11z m-25905 -48 c36 -52 19 -69 -39 -36 -52 29 -63 43 -47 62 23
27 55 18 86 -26z m9525 -69 c21 -12 49 -60 49 -85 0 -27 -37 -16 -69 20 -48
55 -36 95 20 65z m6084 -16 c27 -29 33 -64 12 -64 -22 0 -70 57 -64 74 9 23
25 20 52 -10z m4784 -33 c5 -9 11 -27 12 -41 6 -36 -19 -36 -63 1 -38 30 -49
63 -25 72 19 6 66 -13 76 -32z m-3821 1 c4 -24 -7 -29 -25 -11 -14 14 -5 41
11 36 6 -2 12 -13 14 -25z m27370 9 c25 -21 29 -51 8 -51 -17 0 -44 41 -39 58
6 15 6 15 31 -7z m-25683 -141 c10 -11 15 -26 11 -36 -6 -15 -8 -15 -26 1 -20
18 -28 55 -12 55 5 0 17 -9 27 -20z m20572 -226 c-9 -9 -28 6 -21 18 4 6 10 6
17 -1 6 -6 8 -13 4 -17z m-59223 -89 c33 -51 13 -69 -44 -40 -33 17 -40 49
-13 63 22 13 38 6 57 -23z m50461 -151 c21 -16 39 -40 44 -62 19 -67 -11 -70
-74 -8 -25 24 -45 52 -45 63 0 41 27 44 75 7z m6483 -76 c12 -12 17 -58 6 -58
-20 0 -44 24 -44 45 0 27 18 33 38 13z m1480 -200 c13 -13 16 -48 4 -48 -14 0
-32 23 -32 42 0 21 11 23 28 6z m11422 -93 c0 -8 -7 -15 -15 -15 -8 0 -15 7
-15 15 0 8 7 15 15 15 8 0 15 -7 15 -15z m-27649 -54 c49 -49 33 -89 -21 -50
-31 24 -46 52 -35 69 10 17 25 12 56 -19z m26256 -143 c24 -22 30 -52 14 -63
-12 -7 -51 43 -51 66 0 25 9 24 37 -3z m-65698 -100 c30 -41 31 -43 13 -61
-24 -23 -46 -14 -72 29 -23 40 -25 60 -7 67 26 11 36 6 66 -35z m65122 -123
c19 -43 19 -65 -2 -65 -14 0 -49 62 -49 88 0 38 30 25 51 -23z m859 -30 c24
-38 20 -68 -7 -63 -18 3 -51 54 -52 81 -2 31 36 19 59 -18z m-281 -64 c37 -51
20 -93 -18 -45 -21 27 -29 74 -12 74 5 0 19 -13 30 -29z m130 -83 c10 -24 17
-45 15 -47 -2 -2 -15 2 -29 9 -33 17 -37 12 -23 -33 15 -48 5 -56 -26 -21 -29
33 -33 62 -11 70 8 4 15 14 15 23 0 18 18 41 32 41 5 0 17 -19 27 -42z m106
-50 c8 -37 -7 -57 -29 -39 -18 15 -31 74 -21 91 10 17 43 -16 50 -52z m-1243
-43 c8 -18 8 -29 1 -36 -13 -13 -43 15 -43 42 0 28 28 23 42 -6z m-28597 -41
c27 -29 31 -49 14 -60 -16 -10 -73 51 -66 70 9 23 24 20 52 -10z m10574 -17
c6 -8 8 -16 5 -20 -10 -9 -34 4 -34 19 0 18 14 18 29 1z m22981 -92 c7 -8 9
-23 5 -37 l-8 -22 -18 23 c-11 13 -19 29 -19 37 0 18 24 18 40 -1z m-9005 -55
c40 -79 28 -124 -22 -79 -52 48 -66 129 -22 129 12 0 27 -16 44 -50z m4736
-20 c17 -10 28 -60 12 -60 -14 0 -43 34 -43 52 0 21 4 22 31 8z m1074 -150 c3
-5 1 -10 -4 -10 -6 0 -11 5 -11 10 0 6 2 10 4 10 3 0 8 -4 11 -10z m-11992
-92 c9 -32 -23 -35 -50 -4 -23 27 -30 65 -16 80 9 9 59 -48 66 -76z m-22907
-35 c14 -16 28 -82 20 -90 -3 -3 -22 1 -43 8 -39 15 -79 69 -70 94 7 18 77 9
93 -12z m-19108 -85 c17 -17 15 -58 -2 -58 -14 0 -46 41 -46 60 0 14 33 13 48
-2z m5765 -58 c17 -28 17 -31 1 -37 -24 -9 -48 10 -52 41 -5 37 28 35 51 -4z
m40775 -102 c16 -16 15 -48 -2 -48 -20 0 -39 27 -32 45 7 18 18 19 34 3z
m-62033 -29 c11 -17 -1 -21 -15 -4 -8 9 -8 15 -2 15 6 0 14 -5 17 -11z m48488
-17 c19 -17 23 -62 5 -62 -18 0 -58 41 -58 60 0 33 15 34 53 2z m-31704 -36
c29 -31 24 -60 -11 -64 -19 -2 -31 4 -47 27 -12 16 -18 36 -15 45 9 24 47 19
73 -8z m1205 -95 c14 -24 16 -35 7 -44 -13 -13 -61 28 -61 53 0 41 27 37 54
-9z m46576 -172 c0 -5 -4 -9 -10 -9 -5 0 -10 7 -10 16 0 8 5 12 10 9 6 -3 10
-10 10 -16z m-25266 -11 c8 -13 7 -21 -1 -29 -16 -16 -43 5 -43 33 0 24 28 21
44 -4z m22870 -163 c10 -40 -3 -50 -30 -24 -36 33 -31 79 6 59 10 -5 21 -21
24 -35z m-30404 -107 c21 -36 18 -48 -12 -48 -25 0 -47 27 -48 58 0 34 36 28
60 -10z m-17186 -10 c20 -28 20 -47 0 -55 -19 -7 -64 34 -64 59 0 26 45 24 64
-4z m43253 -120 c34 -20 35 -23 29 -67 -11 -79 -33 -78 -91 3 -27 39 -32 52
-24 67 13 25 44 24 86 -3z m-40437 -13 c6 -8 13 -29 13 -47 2 -27 -2 -33 -17
-33 -23 0 -61 58 -52 80 7 19 40 19 56 0z m48514 -170 c3 -9 0 -15 -9 -15 -8
0 -15 7 -15 15 0 8 4 15 9 15 5 0 11 -7 15 -15z m-17257 -55 c27 -25 38 -59
24 -73 -14 -14 -81 48 -81 75 0 24 31 23 57 -2z m-49261 -194 c43 -43 46 -83
7 -92 -35 -9 -55 5 -72 53 -27 76 8 96 65 39z m26009 4 c19 -21 14 -50 -9 -50
-15 0 -56 45 -56 61 0 17 47 9 65 -11z m16699 -76 c20 -19 21 -44 2 -44 -20 0
-39 27 -32 45 7 19 11 19 30 -1z m29616 -84 c6 -11 7 -20 2 -20 -10 0 -32 21
-32 32 0 16 19 8 30 -12z m-15029 -43 c37 -46 45 -75 23 -84 -22 -8 -84 60
-84 94 0 34 30 29 61 -10z m-13437 -20 c15 -20 17 -30 8 -39 -8 -8 -15 -8 -27
2 -23 19 -37 49 -30 61 10 15 26 7 49 -24z m-8409 -183 c16 -6 45 -54 45 -74
0 -19 -26 -10 -54 19 -17 18 -26 36 -23 45 7 18 9 18 32 10z m-29178 -12 c7
-4 16 -22 19 -40 6 -27 4 -32 -14 -32 -20 0 -56 56 -46 72 6 10 25 10 41 0z
m45978 -142 c3 -5 1 -10 -4 -10 -6 0 -11 5 -11 10 0 6 2 10 4 10 3 0 8 -4 11
-10z m5362 -102 c24 -22 30 -52 14 -63 -12 -7 -37 18 -56 56 -14 27 -14 29 2
29 9 0 27 -10 40 -22z m-55800 -92 c51 -51 55 -85 12 -100 -34 -12 -83 11 -87
42 -2 14 -10 22 -23 22 -29 0 -59 18 -59 35 0 9 10 15 25 15 14 0 28 7 31 15
12 29 54 17 101 -29z m24175 -283 c27 -24 23 -53 -6 -53 -24 0 -36 16 -36 51
0 23 17 24 42 2z m23449 -73 c22 -12 49 -60 49 -88 0 -11 -6 -25 -14 -31 -11
-10 -22 -5 -53 21 -49 43 -53 48 -53 81 0 22 4 27 26 27 14 0 34 -5 45 -10z
m801 -67 c18 -17 25 -73 9 -73 -15 0 -51 51 -51 71 0 23 18 24 42 2z m8011
-195 c23 -18 27 -61 5 -66 -20 -4 -53 42 -44 63 7 18 17 19 39 3z m4866 -35
c28 -24 42 -113 18 -113 -28 0 -77 56 -77 88 0 46 22 55 59 25z m-35186 -57
c3 -8 3 -17 0 -20 -7 -7 -33 13 -33 25 0 15 27 10 33 -5z m-11195 -38 c16 -16
15 -48 -1 -48 -19 0 -37 21 -37 42 0 21 20 24 38 6z m20676 -130 c22 -30 3
-48 -24 -23 -11 10 -20 24 -20 32 0 21 27 15 44 -9z m-33550 -14 c22 -32 17
-68 -9 -72 -16 -2 -23 6 -32 37 -7 23 -13 45 -13 51 0 20 38 9 54 -16z m49708
-141 c22 -19 24 -43 3 -43 -14 0 -35 29 -35 49 0 16 11 14 32 -6z m6121 -11
c29 -30 42 -101 20 -109 -14 -5 -72 55 -79 84 -8 29 1 53 19 53 7 0 25 -13 40
-28z m-8713 -132 c21 -21 28 -70 10 -70 -16 0 -60 47 -60 63 0 32 22 35 50 7z
m-29236 4 c9 -3 16 -15 16 -26 0 -28 -34 -19 -38 10 -4 24 -2 25 22 16z
m39127 -44 c10 -6 26 -24 34 -40 39 -76 -6 -99 -49 -26 -39 66 -33 91 15 66z
m-20182 -106 c22 -37 28 -74 11 -74 -19 0 -90 72 -90 91 0 14 7 19 29 19 23 0
34 -8 50 -36z m-222 -39 c24 -45 30 -111 11 -118 -27 -9 -93 34 -110 72 -31
65 -17 94 42 89 29 -3 39 -10 57 -43z m-2584 -74 c9 -15 14 -31 10 -35 -15
-15 -42 -4 -53 23 -22 55 12 65 43 12z m-19554 -40 c40 -50 40 -71 2 -71 -45
0 -101 81 -70 101 24 15 37 10 68 -30z m39501 -116 c0 -8 -4 -15 -9 -15 -5 0
-11 7 -15 15 -3 9 0 15 9 15 8 0 15 -7 15 -15z m-27846 -30 c19 -29 21 -55 4
-55 -16 0 -69 65 -61 74 14 14 42 5 57 -19z m-28016 -45 c3 -21 2 -22 -12 -11
-19 16 -21 44 -3 39 6 -3 14 -15 15 -28z m25644 -27 c25 -23 23 -43 -6 -43
-25 0 -43 30 -31 50 9 14 16 13 37 -7z m21133 -124 c4 -12 3 -25 -2 -30 -12
-12 -47 26 -38 40 11 18 33 12 40 -10z m20931 -114 c17 -26 12 -45 -11 -45
-16 0 -35 30 -35 54 0 24 28 19 46 -9z m-14666 -25 c22 -12 60 -75 60 -101 0
-34 -38 -22 -70 23 -29 40 -37 68 -23 81 8 9 11 9 33 -3z m20054 4 c9 -3 16
-15 16 -25 0 -10 5 -39 12 -63 14 -52 1 -76 -38 -76 -18 0 -32 12 -53 46 -34
54 -31 78 13 105 36 22 30 21 50 13z m-64448 -109 c4 -14 4 -29 0 -32 -9 -10
-36 18 -36 38 0 28 29 23 36 -6z m5484 -61 c21 -61 -19 -72 -54 -14 -20 35
-14 50 19 50 18 0 26 -8 35 -36z m28168 -82 c2 -7 -3 -12 -12 -12 -9 0 -16 7
-16 16 0 17 22 14 28 -4z m19853 -21 c40 -41 38 -71 -11 -115 -43 -39 -59 -39
-87 2 -57 86 -58 105 -6 128 45 20 72 16 104 -15z m3809 4 c11 -20 11 -28 1
-38 -10 -9 -16 -7 -32 12 -10 13 -19 29 -19 37 0 24 36 15 50 -11z m-33201
-39 c28 -45 27 -66 -3 -66 -38 0 -56 10 -71 41 -24 45 -20 59 19 59 28 0 38
-6 55 -34z m17011 -41 c10 -12 10 -19 2 -27 -16 -16 -42 -2 -42 22 0 24 22 26
40 5z m-36995 -127 c14 -36 12 -48 -10 -48 -19 0 -49 46 -41 65 9 26 36 17 51
-17z m11007 5 c23 -27 48 -80 41 -87 -4 -3 -25 -6 -47 -6 -38 1 -42 4 -64 46
-12 25 -20 50 -16 55 9 16 70 10 86 -8z m36990 -16 c34 -28 47 -84 22 -94 -35
-13 -94 84 -67 110 10 11 16 9 45 -16z m-41006 -22 c18 -28 13 -55 -10 -55
-20 0 -50 46 -42 65 8 23 34 18 52 -10z m-6212 -171 c20 -8 21 -44 2 -44 -18
0 -39 27 -31 40 7 12 8 12 29 4z m-11624 -14 c0 -5 -4 -10 -9 -10 -6 0 -13 5
-16 10 -3 6 1 10 9 10 9 0 16 -4 16 -10z m37330 -27 c29 -37 10 -55 -25 -23
-14 13 -25 29 -25 37 0 22 27 15 50 -14z m6625 -31 c0 -18 -20 -15 -23 4 -3
10 1 15 10 12 7 -3 13 -10 13 -16z m12144 -16 c12 -14 5 -46 -10 -46 -12 0
-31 39 -24 50 9 14 21 12 34 -4z m-34289 -106 c0 -5 -7 -10 -15 -10 -8 0 -15
5 -15 10 0 6 7 10 15 10 8 0 15 -4 15 -10z m28277 -169 c12 -28 11 -32 -3 -38
-30 -11 -80 68 -57 90 11 12 47 -19 60 -52z m-52323 17 c20 -28 21 -58 2 -58
-19 0 -47 45 -40 64 8 22 20 20 38 -6z m25560 -4 c24 -24 21 -56 -5 -52 -27 4
-44 30 -36 52 8 20 21 20 41 0z m37746 -190 c33 -38 36 -67 8 -72 -21 -4 -58
52 -58 86 0 31 13 28 50 -14z m-30253 -133 c23 -34 30 -61 16 -61 -5 0 -23 9
-40 20 -26 15 -33 26 -33 51 0 41 26 36 57 -10z m-21010 -36 c3 -9 3 -19 -1
-22 -7 -7 -36 16 -36 28 0 15 30 10 37 -6z m10788 5 c3 -5 -1 -10 -9 -10 -9 0
-16 5 -16 10 0 6 4 10 9 10 6 0 13 -4 16 -10z m13115 -30 c19 -20 46 -98 38
-106 -4 -3 -26 -2 -49 3 -33 7 -49 17 -66 42 -25 37 -30 77 -10 84 22 8 72 -5
87 -23z m33254 -16 c9 -25 7 -44 -5 -44 -14 0 -38 30 -39 48 0 18 37 15 44 -4z
m-23419 -52 c19 -13 37 -64 26 -75 -13 -13 -28 -2 -46 34 -20 38 -8 62 20 41z
m13735 -38 c0 -22 -2 -23 -20 -12 -20 13 -26 38 -13 51 11 12 33 -14 33 -39z
m5994 10 c11 -28 7 -35 -14 -24 -23 12 -27 40 -6 40 8 0 17 -7 20 -16z
m-60954 -31 c14 -18 17 -30 10 -37 -16 -16 -44 6 -48 38 -4 33 11 33 38 -1z
m51708 -35 c16 -16 15 -28 -3 -28 -8 0 -19 9 -25 20 -8 15 -8 20 3 20 7 0 18
-5 25 -12z m-61359 -83 c17 -20 31 -37 31 -40 0 -12 -33 -33 -45 -29 -22 9
-56 70 -49 88 10 25 29 19 63 -19z m54629 2 c16 -19 19 -59 6 -64 -14 -5 -54
56 -54 81 0 13 4 15 18 7 10 -5 24 -16 30 -24z m3591 -5 c14 -26 -3 -50 -26
-36 -25 15 -37 39 -30 58 5 13 11 15 27 6 11 -6 24 -18 29 -28z m-33613 3 c17
-26 12 -59 -8 -53 -6 2 -21 17 -32 32 -18 23 -19 28 -6 36 22 14 28 12 46 -15z
m32908 -41 c35 -17 46 -42 46 -106 0 -51 -27 -47 -81 13 -78 87 -59 138 35 93z
m-58359 -28 c36 -34 44 -55 23 -57 -52 -5 -110 56 -81 84 12 13 24 7 58 -27z
m939 2 c17 -24 21 -48 9 -48 -18 0 -66 48 -59 58 11 19 33 14 50 -10z m78196
-12 c13 -14 20 -32 17 -40 -8 -21 -32 -11 -46 20 -22 49 -8 59 29 20z m-76684
-38 c28 -44 25 -70 -10 -76 -33 -7 -83 62 -71 98 11 36 52 25 81 -22z m63289
25 c33 -16 36 -21 31 -46 -3 -16 -6 -38 -6 -48 0 -49 -80 6 -94 64 -12 50 8
59 69 30z m-36185 -33 c23 -23 27 -60 6 -60 -18 0 -46 38 -46 62 0 24 15 23
40 -2z m21699 -22 c9 -15 12 -30 9 -34 -12 -12 -58 25 -58 47 0 29 30 21 49
-13z m-8278 -10 c22 -28 25 -68 5 -68 -16 0 -66 60 -66 78 0 20 41 13 61 -10z
m-32083 -34 c-10 -10 -28 6 -28 24 0 15 1 15 17 -1 9 -9 14 -19 11 -23z
m45621 -240 c26 -43 27 -67 4 -62 -22 4 -57 64 -49 83 9 24 22 18 45 -21z
m-24763 -25 c23 -37 24 -43 11 -56 -20 -20 -51 -3 -73 38 -34 68 20 83 62 18z
m24744 -124 c16 -19 3 -40 -16 -24 -15 13 -19 39 -5 39 5 0 14 -7 21 -15z
m4870 -16 c0 -24 -23 -21 -28 4 -2 10 3 17 12 17 10 0 16 -9 16 -21z m-2082
-4 c60 -26 82 -52 82 -101 0 -24 -4 -45 -8 -48 -11 -6 -120 104 -122 124 -3
22 -1 40 5 40 3 0 22 -7 43 -15z m-23930 -105 c44 -82 42 -110 -4 -75 -10 8
-29 15 -41 15 -24 0 -48 29 -58 72 -9 36 0 48 39 48 30 0 36 -5 64 -60z m9624
43 c20 -26 39 -73 33 -84 -12 -18 -34 -9 -59 24 -31 40 -34 77 -8 77 11 0 25
-8 34 -17z m11703 -40 c3 -9 1 -21 -5 -27 -14 -14 -45 17 -37 38 7 18 33 11
42 -11z m2863 -85 c76 -74 73 -70 57 -88 -29 -32 -13 -90 25 -90 18 0 50 -59
50 -90 0 -26 -78 -76 -98 -64 -7 5 -21 22 -30 37 -16 27 -16 29 1 38 25 14 21
40 -15 103 -38 65 -67 78 -37 16 24 -49 24 -60 -1 -60 -12 0 -29 16 -46 46
-25 42 -26 47 -11 56 10 5 17 15 17 22 0 7 11 25 25 40 14 15 25 34 25 42 0
20 11 18 38 -8z m7246 -90 c21 -34 29 -68 17 -68 -20 0 -51 40 -51 65 0 31 15
32 34 3z m-7087 -84 c14 -30 23 -57 20 -60 -11 -12 -37 5 -47 31 -5 14 -14 25
-20 25 -11 0 -13 30 -4 54 9 23 21 12 51 -50z m-27193 40 c9 -25 7 -34 -9 -34
-12 0 -35 28 -35 44 0 14 38 5 44 -10z m10500 -6 c22 -30 3 -48 -24 -23 -11
10 -20 24 -20 32 0 21 27 15 44 -9z m17105 -99 c14 -40 14 -39 -4 -39 -16 0
-35 30 -35 54 0 28 28 17 39 -15z m-2908 -43 c32 -62 12 -102 -28 -56 -10 12
-30 33 -45 48 -30 29 -34 42 -17 59 21 21 65 -5 90 -51z m2141 27 c21 -19 25
-73 5 -73 -19 0 -52 71 -40 84 9 9 15 7 35 -11z m-1752 -35 c28 -46 27 -78 -4
-78 -18 0 -27 9 -40 43 -21 56 -20 67 4 67 12 0 28 -13 40 -32z m18765 -56
c76 -53 81 -110 13 -152 -61 -37 -96 -20 -140 64 -24 46 -18 75 19 98 40 23
62 21 108 -10z m-62263 1 c23 -20 24 -53 2 -53 -20 0 -43 28 -44 53 0 22 18
22 42 0z m43328 -25 c20 -22 28 -68 11 -68 -15 0 -51 51 -51 71 0 25 15 24 40
-3z m-6186 -33 c33 -51 7 -85 -31 -41 -22 26 -30 56 -17 69 10 10 32 -3 48
-28z m-20139 5 c0 -8 -8 -16 -17 -18 -13 -2 -18 3 -18 18 0 15 5 20 18 18 9
-2 17 -10 17 -18z m28649 -2 c21 -34 24 -62 5 -66 -17 -3 -41 27 -53 66 -6 18
-4 22 13 22 11 0 27 -10 35 -22z m-52970 -20 c21 -29 20 -58 -1 -58 -22 0 -53
29 -53 50 0 36 31 41 54 8z m61697 -19 c7 -15 8 -24 0 -32 -13 -13 -37 5 -44
33 -7 28 29 27 44 -1z m-12179 -64 c6 -14 8 -28 5 -32 -9 -8 -47 27 -47 44 0
23 30 14 42 -12z m918 -55 c16 -8 40 -58 40 -81 0 -19 -30 -7 -54 22 -41 48
-33 84 14 59z m-31940 -86 c39 -33 38 -68 -2 -72 -23 -3 -30 3 -47 36 -15 29
-17 42 -8 51 16 16 22 14 57 -15z m34293 -79 c8 -18 -11 -31 -25 -17 -11 11
-3 32 12 32 4 0 10 -7 13 -15z m-55803 -47 c12 -22 12 -30 2 -40 -11 -11 -17
-9 -33 11 -10 13 -19 32 -19 43 0 28 31 19 50 -14z m19486 -13 c17 -32 17 -36
2 -51 -21 -21 -49 -11 -71 25 -22 37 -13 61 22 61 21 0 32 -8 47 -35z m34238
19 c18 -18 21 -54 5 -54 -14 0 -48 41 -49 58 0 17 25 15 44 -4z m-3772 -41
c23 -21 25 -76 2 -71 -21 4 -48 52 -41 72 8 20 16 20 39 -1z m7922 -65 c20
-28 21 -58 2 -58 -18 0 -46 38 -46 62 0 25 26 22 44 -4z m-4567 -93 c41 -72
23 -113 -27 -60 -13 14 -29 25 -36 25 -22 0 -25 18 -9 50 21 41 43 36 72 -15z
m18753 -101 c0 -9 -5 -14 -12 -12 -18 6 -21 28 -4 28 9 0 16 -7 16 -16z
m-10770 -214 c23 -23 25 -36 8 -46 -13 -8 -48 30 -48 52 0 20 17 17 40 -6z
m-2764 -15 c9 -14 10 -25 3 -35 -8 -13 -12 -11 -29 9 -11 13 -20 30 -20 38 0
20 30 12 46 -12z m-7754 -12 c20 -18 25 -63 6 -63 -20 0 -48 32 -48 57 0 27
16 30 42 6z m12495 -205 c17 -23 36 -79 29 -86 -11 -10 -66 55 -66 78 0 22 22
27 37 8z m-7383 -110 c19 -27 21 -48 3 -48 -15 0 -49 54 -40 64 11 11 21 7 37
-16z m-1374 -4 c0 -8 -4 -12 -10 -9 -5 3 -10 10 -10 16 0 5 5 9 10 9 6 0 10
-7 10 -16z m-40396 -43 c13 -14 17 -27 12 -46 -10 -39 -31 -40 -75 -4 -41 32
-52 62 -28 73 21 9 71 -4 91 -23z m13654 -15 c3 -13 -1 -17 -14 -14 -11 2 -20
11 -22 22 -3 13 1 17 14 14 11 -2 20 -11 22 -22z m15838 -4 c18 -12 54 -101
43 -108 -17 -10 -37 4 -69 48 -29 39 -30 43 -14 55 20 15 25 15 40 5z m19168
-40 c10 -36 6 -45 -16 -37 -19 7 -41 53 -32 66 12 20 38 3 48 -29z m-22309
-31 c10 -20 11 -32 5 -36 -16 -10 -40 15 -40 41 0 33 16 30 35 -5z m13755 13
c0 -8 -4 -12 -10 -9 -5 3 -10 10 -10 16 0 5 5 9 10 9 6 0 10 -7 10 -16z
m11215 -57 c17 -14 28 -36 32 -63 5 -38 3 -42 -37 -74 -50 -40 -59 -36 -107
34 -34 49 -43 94 -20 100 17 5 90 23 99 25 4 0 19 -9 33 -22z m-3527 -70 c2
-15 -1 -27 -5 -27 -15 0 -33 23 -33 43 0 30 34 16 38 -16z m-30927 -44 c4 -11
3 -26 -2 -34 -11 -18 -38 -2 -59 35 -13 23 -13 28 0 36 18 11 50 -8 61 -37z
m24359 31 c0 -8 -4 -12 -10 -9 -5 3 -10 10 -10 16 0 5 5 9 10 9 6 0 10 -7 10
-16z m-10099 -24 c23 -13 26 -50 4 -50 -9 0 -20 12 -25 26 -15 39 -13 42 21
24z m10437 -24 c3 -12 -1 -17 -10 -14 -7 3 -15 13 -16 22 -3 12 1 17 10 14 7
-3 15 -13 16 -22z m-38248 -20 c0 -3 -4 -8 -10 -11 -5 -3 -10 -1 -10 4 0 6 5
11 10 11 6 0 10 -2 10 -4z m305 -62 c11 -12 14 -25 10 -43 -10 -40 -25 -52
-59 -49 -28 3 -31 7 -34 41 -2 21 2 45 9 53 16 19 54 18 74 -2z m34500 -162
c27 -41 25 -73 -3 -65 -17 4 -62 72 -62 92 0 26 41 8 65 -27z m-48628 -104
c24 -22 30 -52 13 -63 -15 -9 -80 45 -80 66 0 26 38 25 67 -3z m52146 -19 c29
-13 47 -48 47 -89 0 -41 -16 -46 -46 -13 -43 46 -56 71 -49 93 7 23 14 24 48
9z m-38565 -59 c3 -36 38 -80 58 -73 6 2 23 -1 37 -6 40 -16 34 -44 -13 -65
-22 -10 -40 -24 -40 -31 0 -19 -36 -38 -59 -30 -13 4 -18 16 -19 44 -1 21 -9
54 -17 74 -20 49 -19 97 3 113 28 22 47 12 50 -26z m50020 -49 c13 -36 0 -60
-21 -42 -17 14 -30 57 -22 71 10 16 33 0 43 -29z m-50553 16 c0 -1 10 -17 23
-34 16 -23 21 -40 16 -59 -6 -23 -4 -25 21 -22 16 2 30 8 32 14 4 13 -19 39
-39 47 -18 6 1 38 35 57 21 12 28 12 41 1 18 -15 21 -72 6 -102 -24 -45 32
-81 74 -48 13 10 32 19 43 19 17 0 63 -58 63 -80 0 -5 4 -10 9 -10 10 0 8 -34
-4 -62 -3 -9 -19 -21 -34 -26 -22 -8 -30 -6 -38 7 -8 12 -13 13 -24 5 -24 -19
-89 -16 -95 4 -13 38 -28 62 -41 62 -19 0 -72 61 -73 85 -1 11 -4 14 -7 8 -2
-7 -12 -13 -20 -13 -10 0 -13 -6 -9 -16 3 -9 6 -18 6 -20 0 -2 6 -4 13 -4 25
0 46 -33 40 -62 -3 -16 -9 -28 -13 -28 -14 0 -59 41 -65 59 -3 11 -16 22 -29
25 -24 6 -46 43 -46 78 0 17 5 20 30 16 l31 -5 -7 44 c-9 60 -1 77 34 68 15
-4 27 -7 27 -8z m44455 -7 c6 -12 10 -40 8 -63 -2 -34 -7 -43 -24 -45 -27 -4
-64 52 -64 97 0 29 2 31 35 31 24 0 37 -6 45 -20z m-33160 -60 c0 -13 -5 -18
-15 -14 -8 4 -15 12 -15 20 0 8 7 14 15 14 8 0 15 -9 15 -20z m17994 -12 c20
-29 20 -58 1 -58 -17 0 -57 59 -49 72 9 15 33 8 48 -14z m3874 -20 c4 -33 -21
-39 -38 -9 -16 30 -12 43 13 39 16 -2 23 -11 25 -30z m-34078 -19 c6 -10 10
-25 10 -33 0 -9 15 -30 33 -46 l32 -30 -25 -20 c-41 -33 -64 -23 -70 32 -3 27
-11 53 -18 60 -13 13 -16 50 -6 61 9 9 34 -4 44 -24z m36665 -30 c27 -33 28
-52 3 -57 -17 -3 -62 64 -53 79 10 16 22 10 50 -22z m-265 -80 c0 -16 -26 -10
-45 11 -11 12 -15 26 -10 37 6 16 9 15 31 -10 13 -15 24 -32 24 -38z m-35519
-36 c6 -16 9 -40 6 -55 -2 -20 1 -28 11 -28 8 0 50 -36 94 -80 43 -44 85 -80
92 -80 7 0 24 21 38 47 13 27 36 54 50 63 24 13 29 13 47 -4 11 -10 18 -23 15
-28 -3 -5 0 -15 6 -23 10 -12 9 -15 -4 -15 -12 0 -16 -5 -11 -19 3 -10 0 -30
-6 -44 -10 -22 -8 -35 11 -78 12 -29 30 -64 40 -78 20 -29 36 -101 22 -101 -5
0 -21 12 -35 26 -18 18 -34 24 -54 22 -23 -2 -29 -8 -31 -35 -3 -32 -2 -33 37
-33 23 0 41 5 41 10 0 6 5 10 10 10 6 0 10 -16 10 -35 0 -30 -9 -44 -57 -90
-32 -30 -61 -55 -65 -55 -14 0 -9 -45 7 -66 19 -25 19 -34 0 -34 -8 0 -15 -7
-15 -15 0 -8 7 -15 15 -15 8 0 18 0 23 0 4 -1 9 14 12 32 4 27 9 33 30 33 17
0 26 -6 29 -20 2 -11 11 -25 20 -31 9 -7 17 -17 17 -23 1 -6 2 -16 3 -22 0 -5
15 -15 31 -21 19 -6 30 -17 29 -27 -3 -33 14 -62 47 -77 28 -14 35 -23 44 -68
6 -29 10 -70 8 -91 -2 -27 3 -41 17 -52 18 -13 20 -12 23 11 3 20 9 26 28 26
13 0 24 4 24 9 0 18 40 19 50 1 16 -30 13 -90 -5 -90 -9 0 -15 -9 -15 -25 0
-14 -4 -25 -10 -25 -5 0 -10 -7 -10 -15 0 -9 9 -15 25 -15 23 0 25 4 25 40 0
36 2 40 25 40 27 0 91 36 114 64 7 9 15 31 16 48 2 18 3 36 4 41 2 12 57 67
68 67 6 0 14 12 17 26 9 36 36 74 51 74 7 0 18 -7 25 -15 9 -10 23 -13 49 -9
25 3 47 -1 71 -14 32 -18 35 -23 32 -58 -3 -42 2 -53 33 -70 12 -6 21 -24 23
-42 3 -25 -3 -35 -32 -57 -40 -30 -44 -43 -18 -52 20 -7 52 -38 52 -50 0 -5
12 -14 28 -20 15 -7 34 -17 42 -22 8 -5 28 -12 43 -16 45 -9 31 -38 -23 -48
-47 -9 -79 -38 -80 -70 0 -10 -4 -15 -10 -12 -12 7 -2 -21 18 -52 7 -12 11
-27 7 -32 -3 -7 0 -8 9 -5 9 3 16 10 16 16 0 5 14 22 31 37 28 26 34 28 67 18
21 -6 44 -16 53 -24 8 -7 31 -16 50 -19 55 -11 69 -29 69 -94 0 -57 -17 -89
-39 -76 -17 11 -41 -6 -41 -28 0 -12 9 -39 20 -60 17 -34 17 -41 5 -59 -8 -11
-12 -32 -9 -46 6 -34 -31 -61 -83 -63 -45 -1 -85 -22 -77 -42 3 -8 -5 -18 -23
-24 -34 -13 -73 -46 -73 -61 0 -6 -3 -11 -7 -11 -5 0 -15 -12 -24 -28 -8 -15
-29 -34 -45 -41 -16 -8 -46 -32 -67 -54 -24 -24 -44 -36 -53 -33 -17 7 -74
-20 -74 -34 0 -5 -19 -15 -43 -21 -44 -11 -71 -37 -58 -57 4 -7 25 -18 46 -26
35 -12 40 -17 38 -42 -3 -37 -27 -54 -75 -54 -27 0 -38 -4 -38 -15 0 -8 -7
-15 -15 -15 -11 0 -15 11 -15 40 l0 40 -45 0 -45 0 0 -40 c0 -22 5 -40 10 -40
6 0 10 -18 10 -39 0 -22 5 -41 13 -44 8 -3 3 -11 -13 -25 -18 -16 -39 -21 -78
-22 -29 0 -67 -7 -84 -16 -17 -9 -45 -16 -63 -16 -20 0 -43 -10 -64 -29 -24
-20 -44 -29 -69 -29 -20 0 -61 -6 -91 -14 -31 -8 -76 -18 -101 -23 -40 -8 -45
-11 -42 -33 1 -13 7 -27 13 -30 18 -11 -1 -36 -40 -54 -25 -11 -41 -25 -45
-41 -9 -36 -46 -41 -111 -15 l-54 22 -34 -26 c-41 -31 -47 -32 -78 -5 -18 16
-35 20 -79 18 -98 -3 -177 21 -242 72 -14 12 -31 18 -37 15 -14 -9 -14 -43 -1
-51 8 -5 7 -11 -1 -21 -16 -19 -28 -18 -48 5 -12 14 -29 18 -62 18 -34 -1 -56
5 -82 23 -20 14 -37 30 -37 35 0 23 -101 64 -145 60 -14 -2 -36 -10 -49 -18
-27 -18 -81 -24 -115 -13 -19 7 -28 3 -46 -18 -14 -16 -33 -26 -49 -26 -15 0
-29 -7 -32 -15 -9 -21 -56 -19 -82 5 -12 11 -25 20 -31 20 -5 0 -11 7 -15 15
-3 8 -13 15 -22 15 -23 0 -103 52 -104 67 0 7 -19 18 -42 24 -24 7 -50 20 -59
30 -22 25 -59 38 -90 32 -40 -7 -81 41 -150 175 -21 42 -51 86 -66 98 -27 21
-27 23 -10 41 21 24 21 32 1 72 -12 24 -20 30 -33 25 -29 -12 -150 -12 -167 1
-21 15 -11 95 12 95 8 0 18 8 21 18 4 9 15 24 25 33 22 20 23 35 4 42 -11 4
-13 16 -9 43 5 29 3 36 -8 32 -8 -2 -18 -14 -24 -26 -5 -11 -21 -27 -35 -34
-14 -7 -36 -21 -49 -30 -13 -10 -38 -18 -55 -17 -17 2 -41 -1 -52 -5 -18 -5
-23 -2 -28 19 -4 16 -13 25 -26 25 -23 0 -35 16 -18 23 8 3 6 6 -4 6 -29 1
-21 43 12 75 25 23 28 31 18 43 -9 12 -9 16 3 24 10 6 7 9 -13 9 -20 0 -26 -4
-22 -15 4 -10 -3 -16 -23 -20 -15 -3 -49 -13 -76 -21 -26 -9 -54 -13 -62 -10
-8 3 -15 1 -15 -4 0 -6 -7 -10 -15 -10 -13 0 -14 4 -5 20 6 11 8 31 4 45 -5
21 1 32 32 60 21 19 47 35 59 35 12 0 26 5 31 10 8 8 18 0 35 -24 30 -45 48
-52 71 -28 15 15 28 17 68 12 29 -4 54 -2 60 4 18 18 11 45 -17 63 -38 24 -39
25 -35 77 3 31 9 46 18 46 9 0 14 11 14 29 0 18 6 31 16 35 9 4 14 9 11 12 -3
4 4 15 16 24 l22 18 -28 11 c-38 15 -37 15 -37 -19 0 -16 -4 -30 -10 -30 -5 0
-10 7 -10 15 0 21 -19 19 -55 -6 -16 -11 -52 -31 -80 -44 -59 -29 -77 -41
-118 -78 -62 -57 -109 -1 -48 58 33 32 40 55 17 55 -24 0 -58 35 -63 66 -7 43
-5 171 2 195 5 15 2 22 -14 26 -12 3 -21 10 -21 15 0 18 -41 68 -51 63 -5 -4
-9 -1 -9 4 0 6 9 11 20 11 11 0 20 5 20 10 0 6 8 10 18 11 10 0 12 3 5 6 -17
6 -16 48 1 62 24 20 61 7 64 -22 2 -14 10 -31 18 -37 23 -20 15 -98 -10 -83
-6 4 -5 -1 3 -10 20 -25 67 -21 92 7 12 13 32 27 44 30 28 7 75 -9 75 -25 0
-6 11 -22 25 -35 17 -15 25 -34 25 -56 0 -57 10 -76 40 -80 17 -3 28 0 27 6
-1 6 9 12 22 14 19 3 22 8 17 28 -3 13 -9 36 -12 52 -4 15 -13 34 -21 43 -8
10 -10 18 -4 20 15 6 19 135 4 131 -7 -1 -13 5 -13 13 0 8 4 15 9 15 5 0 13 9
16 21 7 22 -7 63 -53 158 -28 58 -23 83 17 89 14 2 28 15 35 34 9 19 31 40 62
57 38 21 50 33 57 61 15 61 59 79 79 33 l12 -28 4 40 c2 22 8 45 14 52 14 17
43 16 62 -2 24 -24 32 -18 61 41 15 30 33 58 41 61 8 3 14 11 14 17 0 18 21
35 36 29 8 -3 14 -13 14 -22 0 -10 14 -30 30 -46 17 -16 30 -39 30 -52 0 -18
6 -23 25 -23 24 0 86 30 115 55 43 38 120 24 120 -22 0 -18 -7 -25 -31 -30
-18 -3 -34 -14 -36 -23 -3 -12 -11 -16 -24 -13 -10 3 -25 1 -32 -5 -7 -6 -23
-9 -35 -5 -20 5 -22 2 -22 -36 0 -40 1 -41 35 -41 19 0 35 4 35 9 0 13 122 71
150 71 57 0 204 69 257 119 29 28 35 30 58 19 28 -12 30 -10 91 71 10 12 17
13 37 4 24 -11 25 -14 14 -42 -6 -17 -8 -33 -4 -37 9 -10 36 26 37 48 0 27 46
33 104 14 66 -23 179 -77 188 -90 4 -6 34 -11 67 -11 48 0 64 -4 83 -22 14
-13 28 -23 32 -23 4 0 25 -18 47 -41 29 -30 45 -40 60 -36 11 3 36 -1 55 -9
35 -15 74 -11 74 6 0 14 -62 41 -82 34 -15 -4 -18 0 -18 25 0 35 -22 51 -71
51 -29 0 -96 32 -110 52 -3 5 -12 2 -19 -7 -16 -19 -46 -20 -57 -1 -4 8 -19
16 -33 18 -14 1 -29 13 -35 26 -5 12 -14 22 -20 22 -5 0 -26 25 -45 56 -25 40
-43 57 -62 61 -35 7 -26 23 11 20 16 -1 27 -6 24 -11 -8 -13 18 -26 54 -26 25
0 34 6 45 30 15 34 34 39 42 12 4 -11 17 -29 30 -41 28 -27 66 -21 66 10 0 31
58 25 100 -11 19 -16 42 -29 50 -29 25 -1 62 34 84 80 12 23 33 52 48 63 l27
20 25 -27 c28 -31 39 -33 55 -13 9 11 5 27 -19 74 -33 65 -38 102 -15 102 8 0
15 7 15 16 0 24 19 54 36 54 8 0 19 -12 25 -27z m-18846 -12 c54 -25 98 -73
93 -102 -3 -22 -7 -24 -66 -23 -42 1 -68 6 -80 17 -10 9 -35 23 -56 32 -45 19
-46 48 -2 53 18 2 30 11 33 23 7 24 27 24 78 0z m18491 -2 c19 -11 38 -28 43
-37 9 -15 13 -15 31 -4 20 12 24 11 37 -8 11 -16 22 -20 39 -16 19 5 26 0 39
-23 20 -39 19 -51 -3 -51 -10 0 -26 14 -35 30 -15 25 -21 28 -38 20 -10 -6
-19 -15 -19 -20 0 -6 -6 -10 -14 -10 -25 0 -29 -37 -7 -67 13 -19 18 -37 14
-55 -5 -24 -10 -28 -40 -28 -21 0 -32 4 -28 10 7 12 -16 70 -27 70 -5 0 -8 11
-8 25 0 14 4 25 8 25 18 0 52 38 52 59 0 18 -6 21 -40 21 -43 0 -80 29 -80 62
0 25 34 23 76 -3z m47228 -90 c27 -40 28 -75 3 -67 -17 6 -57 68 -57 89 0 32
26 21 54 -22z m7735 5 c30 -39 27 -80 -5 -67 -17 6 -44 55 -44 78 0 24 26 18
49 -11z m-24473 -41 c15 -21 18 -53 5 -53 -16 0 -41 31 -41 51 0 24 18 25 36
2z m-9807 -42 c24 -34 27 -61 7 -61 -19 0 -56 47 -56 71 0 28 26 23 49 -10z
m9521 8 c0 -5 -4 -9 -10 -9 -5 0 -10 7 -10 16 0 8 5 12 10 9 6 -3 10 -10 10
-16z m-29320 -90 c0 -38 -40 -119 -58 -119 -18 0 -52 42 -52 64 0 13 11 31 25
42 14 10 23 24 21 31 -3 7 2 19 10 28 26 26 54 2 54 -46z m7040 14 c0 -21 -3
-22 -20 -13 -19 10 -27 40 -13 53 11 12 33 -14 33 -40z m-9217 21 c11 -11 -5
-34 -24 -34 -12 0 -19 7 -19 20 0 19 28 28 43 14z m-7701 -31 c19 -17 24 -48
9 -58 -13 -8 -51 35 -51 57 0 22 18 23 42 1z m47862 -5 c20 -28 21 -58 2 -58
-16 0 -46 42 -46 65 0 22 27 18 44 -7z m-17500 -23 c21 -32 20 -45 -2 -45 -17
0 -42 36 -42 60 0 19 28 10 44 -15z m-31321 -69 c6 -16 -2 -28 -14 -20 -12 7
-11 34 0 34 5 0 11 -6 14 -14z m11968 -26 c19 -17 48 -37 64 -46 17 -8 39 -29
50 -47 11 -18 24 -31 29 -29 5 2 17 -9 27 -25 10 -15 24 -36 31 -45 10 -14 10
-27 0 -64 -7 -26 -10 -66 -6 -93 5 -36 2 -50 -10 -60 -9 -7 -16 -20 -16 -28 0
-7 -8 -22 -17 -33 -10 -10 -27 -36 -38 -57 -32 -64 -42 -71 -84 -66 -52 7 -62
-17 -21 -54 25 -21 30 -34 30 -70 0 -37 -3 -43 -21 -43 -19 0 -56 -27 -48 -34
24 -21 49 -25 63 -10 9 8 16 20 16 25 0 5 7 9 16 9 8 0 13 -4 10 -9 -4 -5 3
-7 14 -4 27 7 52 -24 45 -54 -3 -13 -1 -23 5 -23 5 0 10 -4 10 -9 0 -13 -82
-33 -139 -34 -57 -1 -81 14 -81 52 0 19 -11 37 -35 58 -35 31 -35 32 -34 115
0 45 4 119 9 163 7 67 6 84 -8 105 -28 44 -43 53 -90 54 -53 1 -101 30 -102
60 0 30 49 76 82 76 25 0 28 -3 28 -34 0 -19 3 -41 6 -50 7 -19 38 -21 51 -3
14 18 45 151 38 168 -6 17 3 30 30 45 13 7 20 22 20 41 0 30 23 83 35 83 4 0
23 -14 41 -30z m19816 8 c40 -37 22 -68 -19 -31 -17 15 -25 53 -11 53 4 0 17
-10 30 -22z m-28727 -13 c19 -20 22 -30 14 -42 -18 -28 -31 -25 -54 11 -34 56
-4 78 40 31z m5266 -56 c27 -73 9 -105 -61 -111 l-40 -3 3 -46 c3 -58 -17 -78
-82 -80 -26 -1 -49 -6 -52 -11 -3 -4 -16 -8 -30 -8 -21 0 -24 -4 -24 -39 0
-41 -11 -51 -53 -51 -12 0 -28 -9 -35 -20 -6 -11 -27 -26 -46 -34 -22 -9 -42
-29 -57 -57 -28 -50 -69 -68 -121 -53 -25 7 -35 18 -43 44 -17 58 -24 64 -46
36 -10 -13 -19 -29 -19 -34 0 -6 -14 -24 -31 -42 -26 -25 -30 -37 -27 -66 l4
-36 -45 6 c-89 12 -141 23 -148 30 -8 8 -22 107 -16 122 2 6 15 16 28 22 26
12 28 10 50 -33 7 -12 23 -21 42 -23 l32 -3 -2 57 c-1 39 2 58 11 61 10 4 12
-4 6 -33 -6 -34 -5 -36 12 -28 10 4 38 8 61 7 34 0 42 3 47 21 9 34 7 46 -8
46 -23 0 -46 29 -46 59 0 16 -7 34 -15 41 -19 16 -19 49 0 74 17 23 88 50 93
36 2 -6 10 -10 18 -10 10 0 14 12 14 39 0 33 4 40 29 51 37 15 231 3 231 -14
1 -23 36 -52 78 -64 24 -7 46 -20 49 -28 3 -8 12 -14 20 -14 12 0 12 2 -1 16
-9 8 -16 23 -16 32 0 10 -12 30 -26 45 -14 16 -24 29 -23 31 2 1 23 10 46 20
34 15 48 16 73 8 19 -7 40 -8 54 -2 28 10 70 66 61 80 -4 6 2 7 16 1 13 -4 28
-23 35 -42z m2608 45 c22 -8 20 -41 -3 -53 -24 -13 -45 9 -36 39 7 21 14 24
39 14z m926 -59 c0 -8 -4 -15 -10 -15 -5 0 -10 7 -10 15 0 8 5 15 10 15 6 0
10 -7 10 -15z m-136 -37 c8 -32 -17 -56 -38 -38 -16 13 -21 42 -9 53 14 15 41
6 47 -15z m-468 -27 c15 -29 8 -51 -17 -51 -18 0 -39 -27 -39 -49 0 -18 26
-12 45 9 15 16 26 19 49 14 17 -4 34 -12 38 -18 12 -17 9 -92 -3 -123 -6 -15
-15 -38 -20 -50 -23 -59 -36 -76 -68 -89 -46 -19 -59 -13 -63 33 -2 32 -6 38
-24 35 -11 -1 -38 11 -60 29 -21 18 -31 29 -21 26 14 -5 16 -2 11 17 -4 18 -1
26 14 30 23 8 36 32 22 41 -16 10 -11 61 8 77 9 8 29 18 44 22 21 5 29 14 34
42 7 41 31 43 50 5z m28974 3 c0 -9 -5 -14 -12 -12 -18 6 -21 28 -4 28 9 0 16
-7 16 -16z m12616 -42 c6 -4 17 -18 23 -31 16 -30 0 -51 -24 -31 -42 35 -41
90 1 62z m-38964 -58 c-6 -28 -11 -30 -30 -11 -15 16 -15 19 -2 27 21 14 36 6
32 -16z m30180 -66 c-16 -16 -37 4 -28 28 6 16 8 16 23 1 13 -13 15 -19 5 -29z
m-33025 15 c19 -16 20 -19 6 -40 -20 -30 -10 -73 17 -73 25 0 25 -13 3 -40
-21 -24 -36 -25 -53 -5 -7 8 -22 15 -34 15 -43 1 -72 43 -57 83 13 33 57 77
78 77 11 0 28 -8 40 -17z m54267 -93 c30 -45 35 -93 10 -88 -9 2 -28 24 -41
51 -21 38 -23 50 -13 62 7 8 14 15 15 15 1 0 14 -18 29 -40z m-49400 14 c16
-15 22 -55 10 -67 -11 -10 -45 13 -53 36 -8 21 2 47 20 47 4 0 15 -7 23 -16z
m-4264 -24 c0 -5 5 -10 11 -10 6 0 25 -14 42 -30 18 -17 42 -40 53 -51 26 -24
38 -74 24 -100 -16 -28 -50 -44 -61 -28 -14 24 -22 1 -23 -68 -2 -79 -8 -93
-42 -93 -20 0 -24 5 -24 30 0 17 5 30 13 30 8 0 9 3 1 8 -6 4 -23 28 -38 54
-20 35 -26 55 -21 76 4 21 1 33 -11 43 -13 11 -18 11 -21 2 -6 -17 -32 -16
-39 1 -9 22 15 59 35 53 23 -6 41 16 41 51 0 16 3 32 7 35 10 11 53 8 53 -3z
m2197 -6 c7 -20 -22 -45 -43 -37 -8 3 -14 16 -14 29 0 19 5 24 25 24 15 0 28
-7 32 -16z m36451 -48 c3 -12 -1 -17 -10 -14 -7 3 -15 13 -16 22 -3 12 1 17
10 14 7 -3 15 -13 16 -22z m-36584 -22 c9 -23 -2 -34 -34 -34 -36 0 -49 19
-25 37 25 18 51 17 59 -3z m46150 -13 c18 -20 19 -66 2 -66 -14 0 -49 63 -41
75 9 15 20 12 39 -9z m-63189 -66 c0 -10 -5 -20 -11 -22 -13 -4 -27 24 -18 38
9 15 29 4 29 -16z m16935 -32 c0 -16 -7 -36 -14 -45 -14 -19 -61 -24 -71 -8
-7 12 20 66 37 73 33 13 48 7 48 -20z m40212 -28 c6 -14 8 -28 5 -31 -10 -11
-37 17 -37 37 0 27 18 23 32 -6z m-42843 -9 c15 -17 -3 -60 -21 -54 -23 8 -32
36 -19 52 17 20 25 20 40 2z m-2880 -42 c15 -19 21 -41 21 -75 0 -42 -3 -49
-20 -49 -11 0 -20 -4 -20 -10 0 -14 -43 -13 -58 2 -22 22 -5 128 21 128 4 0 7
7 7 15 0 24 27 18 49 -11z m5405 -19 c-8 -26 -9 -26 -28 -19 -22 8 -21 51 2
56 22 5 33 -11 26 -37z m-250 4 c17 -13 26 -30 26 -49 0 -41 -17 -80 -35 -80
-9 0 -29 -7 -45 -15 -23 -12 -29 -23 -32 -52 -2 -28 -9 -41 -25 -48 -13 -5
-23 -18 -23 -28 0 -10 -8 -20 -17 -23 -10 -3 -34 -14 -54 -24 -21 -11 -56 -22
-79 -26 -37 -6 -41 -9 -35 -28 16 -50 17 -67 5 -81 -20 -24 -44 -18 -76 18
-21 24 -41 36 -72 40 -42 7 -54 25 -34 52 15 22 118 77 152 82 21 4 46 17 62
35 27 28 28 28 58 13 l30 -16 0 44 c0 39 3 43 22 43 19 -1 25 7 35 47 15 62
56 117 87 117 13 0 35 -9 50 -21z m29011 2 c3 -5 1 -12 -5 -16 -5 -3 -10 1
-10 9 0 18 6 21 15 7z m-34355 -91 c0 -11 -4 -20 -10 -20 -5 0 -10 9 -10 20 0
11 5 20 10 20 6 0 10 -9 10 -20z m39190 -10 c23 -22 31 -36 28 -57 -2 -16 -9
-28 -18 -28 -20 0 -74 80 -67 99 9 23 21 20 57 -14z m-1970 -11 c0 -27 -2 -30
-15 -19 -8 7 -15 21 -15 31 0 11 7 19 15 19 10 0 15 -10 15 -31z m-37575 11
c3 -5 15 -10 25 -10 25 0 34 -33 18 -67 -15 -32 -34 -38 -71 -24 -21 8 -27 17
-27 41 0 54 35 92 55 60z m36724 -46 c24 -31 28 -74 7 -74 -17 0 -68 79 -60
92 10 16 33 8 53 -18z m1902 -93 c43 -42 52 -87 23 -115 -20 -21 -30 -20 -65
5 -50 35 -87 130 -56 142 33 14 61 5 98 -32z m-12001 19 c0 -5 -4 -10 -10 -10
-5 0 -10 5 -10 10 0 6 5 10 10 10 6 0 10 -4 10 -10z m-14856 -81 c-10 -16 -24
-9 -24 12 0 18 2 19 15 9 8 -7 12 -16 9 -21z m21063 -98 c28 -42 30 -71 4 -71
-21 0 -61 59 -61 91 0 31 30 20 57 -20z m11875 -118 c22 -20 24 -51 3 -59 -18
-7 -54 32 -55 59 0 22 28 22 52 0z m-39114 -5 c17 -17 15 -48 -4 -55 -9 -3
-24 3 -36 15 -12 12 -18 27 -15 36 7 19 38 21 55 4z m-823 -23 c32 -31 33 -65
3 -65 -31 0 -58 29 -58 62 0 35 22 37 55 3z m31538 -49 c3 -8 3 -17 0 -20 -7
-7 -33 13 -33 25 0 15 27 10 33 -5z m2043 -160 c33 -33 41 -57 28 -90 -3 -9
-12 -16 -19 -16 -15 0 -85 103 -85 125 0 26 41 16 76 -19z m-19054 -113 c22
-19 24 -53 3 -53 -16 0 -35 30 -35 54 0 20 9 20 32 -1z m12658 -19 c0 -9 -5
-14 -12 -12 -18 6 -21 28 -4 28 9 0 16 -7 16 -16z m5929 1 c29 -15 41 -39 41
-87 0 -40 -25 -36 -45 7 -9 19 -23 39 -31 46 -16 13 -19 49 -4 49 6 0 24 -7
39 -15z m-20877 -20 c13 -29 8 -38 -15 -29 -18 6 -30 32 -21 45 10 16 24 10
36 -16z m-18134 -108 c2 -10 -3 -17 -11 -17 -16 0 -30 24 -19 34 10 10 27 1
30 -17z m1390 -43 c18 -18 15 -48 -7 -68 -42 -38 -89 20 -56 70 15 24 37 23
63 -2z m190 7 c3 -8 -1 -12 -9 -9 -7 2 -15 10 -17 17 -3 8 1 12 9 9 7 -2 15
-10 17 -17z m21929 -33 c31 -34 50 -103 33 -123 -14 -17 -43 -19 -70 -5 -20
11 -70 91 -70 112 0 42 73 52 107 16z m-5577 -79 c0 -6 -4 -7 -10 -4 -5 3 -10
11 -10 16 0 6 5 7 10 4 6 -3 10 -11 10 -16z m21466 -36 c18 -24 17 -53 -1 -53
-16 0 -35 30 -35 54 0 21 20 20 36 -1z m-2596 -40 c0 -13 -3 -13 -15 -3 -8 7
-12 16 -9 21 8 13 24 1 24 -18z m-19790 -14 c7 -11 9 -23 6 -26 -8 -9 -36 17
-36 33 0 21 18 17 30 -7z m31919 -16 c32 -39 37 -68 11 -68 -18 0 -74 80 -66
94 12 18 23 13 55 -26z m-43784 8 c7 -12 -12 -24 -25 -16 -11 7 -4 25 10 25 5
0 11 -4 15 -9z m-12225 -16 c0 -8 -4 -15 -10 -15 -5 0 -10 7 -10 15 0 8 5 15
10 15 6 0 10 -7 10 -15z m40830 0 c7 -8 9 -22 6 -31 -5 -13 -9 -14 -21 -4 -16
13 -21 50 -6 50 5 0 14 -7 21 -15z m-28280 1 c0 -2 -3 -11 -6 -20 -9 -23 -34
-20 -34 4 0 13 7 20 20 20 11 0 20 -2 20 -4z m31280 -16 c0 -11 -4 -20 -10
-20 -5 0 -10 9 -10 20 0 11 5 20 10 20 6 0 10 -9 10 -20z m12394 -14 c31 -41
34 -66 6 -66 -21 0 -66 73 -55 90 10 17 22 11 49 -24z m-12904 -77 c0 -10 -4
-19 -10 -19 -12 0 -31 35 -24 43 11 11 34 -5 34 -24z m-44668 -4 c6 -14 8 -28
4 -33 -10 -9 -48 37 -40 49 10 16 24 10 36 -16z m10023 -39 c0 -38 -25 -54
-59 -38 -48 22 -26 75 29 70 26 -3 30 -7 30 -32z m35627 -105 c19 -34 18 -61
-2 -61 -14 0 -50 60 -50 83 0 29 31 16 52 -22z m5983 -22 c4 -11 4 -23 0 -27
-12 -12 -40 15 -43 42 -3 25 -1 26 17 17 11 -6 23 -20 26 -32z m5804 -35 c26
-33 27 -64 4 -64 -18 0 -53 50 -53 76 0 23 27 16 49 -12z m-12404 -64 c11 -12
15 -26 10 -37 -6 -16 -8 -16 -26 6 -34 41 -20 71 16 31z m207 -66 c29 -41 35
-69 18 -79 -22 -13 -87 82 -76 110 9 24 27 14 58 -31z m-34592 -73 c12 -23 5
-47 -17 -55 -25 -10 -50 3 -57 27 -11 41 53 65 74 28z m45080 -34 c71 -35 79
-101 16 -142 -34 -23 -57 -8 -95 59 -36 61 -37 69 -15 90 20 21 40 19 94 -7z
m6970 -16 c14 -27 13 -41 -5 -41 -14 0 -35 29 -35 49 0 18 29 12 40 -8z
m-15880 -27 c0 -8 -6 -14 -14 -14 -16 0 -29 27 -20 41 8 13 34 -9 34 -27z
m-35861 5 c17 -6 31 -14 31 -19 0 -4 9 -10 21 -13 13 -4 20 -12 17 -24 -2 -10
-7 -17 -11 -15 -4 1 -17 2 -29 2 -13 0 -39 14 -58 30 -29 25 -32 31 -20 40 18
12 11 12 49 -1z m30979 -57 c2 -14 -2 -22 -11 -22 -17 0 -30 27 -21 41 9 16
29 4 32 -19z m3864 -29 c19 -17 25 -53 9 -53 -12 0 -41 40 -41 57 0 17 10 16
32 -4z m-34714 -52 c9 -11 31 -16 70 -16 65 0 73 -10 48 -69 -14 -34 -17 -36
-65 -36 -39 0 -56 6 -80 26 -35 29 -49 81 -31 114 10 18 14 19 28 9 9 -7 23
-20 30 -28z m-138 14 c0 -8 -7 -15 -15 -15 -16 0 -20 12 -8 23 11 12 23 8 23
-8z m-150 -156 c0 -32 -12 -49 -35 -49 -37 0 -46 42 -18 77 16 20 19 21 35 6
10 -9 18 -24 18 -34z m27695 -69 c16 -30 13 -50 -6 -50 -12 0 -49 61 -43 72
11 17 34 7 49 -22z m-24153 8 c8 -7 21 -28 28 -47 12 -30 12 -35 -4 -47 -23
-17 -43 -8 -61 27 -24 45 -18 73 16 78 3 1 12 -5 21 -11z m31348 -35 c22 -28
24 -64 4 -70 -16 -5 -57 64 -50 82 8 22 22 18 46 -12z m-34052 -25 c18 -18 14
-38 -8 -38 -11 0 -20 4 -20 9 0 5 -3 16 -6 25 -7 19 16 22 34 4z m32294 -23
c6 -14 8 -28 5 -31 -10 -11 -37 17 -37 37 0 27 18 23 32 -6z m1291 -10 c21
-43 22 -65 3 -65 -19 0 -69 68 -62 85 10 27 42 16 59 -20z m10443 0 c14 -35
12 -55 -7 -55 -14 0 -48 61 -42 76 9 25 34 14 49 -21z m-56035 3 c22 -27 25
-58 5 -58 -18 0 -46 38 -46 62 0 25 18 23 41 -4z m34667 -31 c2 -10 -3 -17
-12 -17 -9 0 -16 2 -16 4 0 2 -3 12 -6 21 -5 13 -2 16 12 13 10 -2 20 -11 22
-21z m-40949 -18 c8 -14 11 -34 7 -44 -6 -17 -8 -16 -31 5 -29 28 -34 73 -8
68 10 -2 24 -15 32 -29z m10216 -106 c20 -48 19 -63 -6 -63 -27 0 -58 38 -59
72 0 50 43 44 65 -9z m39289 6 c14 -23 15 -34 7 -42 -22 -22 -70 26 -58 57 10
25 31 19 51 -15z m-19469 -19 c3 -5 1 -10 -4 -10 -6 0 -11 5 -11 10 0 6 2 10
4 10 3 0 8 -4 11 -10z m17685 -61 c0 -24 -23 -21 -28 4 -2 10 3 17 12 17 10 0
16 -9 16 -21z m4495 -14 c26 -33 30 -65 10 -71 -15 -5 -68 74 -61 91 9 23 23
18 51 -20z m-53261 -111 c26 -39 25 -64 -4 -64 -22 0 -60 50 -60 79 0 34 36
26 64 -15z m51474 -16 c14 -14 16 -64 3 -73 -12 -7 -51 43 -51 66 0 22 29 26
48 7z m-23531 -25 c14 -21 14 -23 -2 -30 -19 -7 -45 19 -45 45 0 20 30 10 47
-15z m-8615 -33 c43 -47 49 -81 16 -104 -38 -27 -70 -19 -121 27 -33 31 -47
51 -47 70 0 21 5 27 23 27 12 0 29 5 37 10 28 18 53 10 92 -30z m33378 -56 c0
-25 -19 -24 -35 0 -22 33 -10 54 16 30 10 -9 19 -23 19 -30z m-14602 10 c26
-18 52 -64 52 -92 0 -43 -62 -33 -105 15 -52 60 -10 121 53 77z m-5928 -24
c11 -11 20 -32 20 -46 0 -22 -4 -25 -27 -22 -30 4 -68 49 -60 72 9 22 43 20
67 -4z m-24566 -25 c15 -27 17 -38 8 -47 -16 -16 -48 15 -57 55 -11 42 25 36
49 -8z m9080 -130 c20 -30 21 -55 1 -55 -19 0 -49 46 -41 65 8 22 21 19 40
-10z m31966 -10 c0 -8 -4 -15 -9 -15 -13 0 -22 16 -14 24 11 11 23 6 23 -9z
m-48593 -62 c14 -20 14 -23 -1 -29 -21 -8 -46 13 -46 38 0 26 28 20 47 -9z
m33613 -13 c0 -11 -7 -20 -15 -20 -8 0 -15 9 -15 20 0 11 7 20 15 20 8 0 15
-9 15 -20z m-4977 -48 c18 -30 18 -32 1 -39 -20 -8 -54 29 -54 59 0 30 31 18
53 -20z m25217 -67 c0 -33 -23 -32 -49 1 -21 27 -27 64 -14 78 12 12 63 -52
63 -79z m-31559 -4 c46 -46 53 -85 14 -75 -19 5 -25 2 -25 -9 0 -44 -46 -26
-90 35 -35 47 -35 51 -14 72 28 29 73 20 115 -23z m21029 29 c0 -5 -2 -10 -4
-10 -3 0 -8 5 -11 10 -3 6 -1 10 4 10 6 0 11 -4 11 -10z m8891 -71 c8 -16 8
-24 0 -32 -14 -14 -31 6 -31 36 0 23 17 22 31 -4z m-18814 -66 c14 -21 14 -23
-2 -29 -24 -9 -49 8 -53 35 -3 18 1 22 19 19 12 -2 28 -13 36 -25z m-9987 -20
c0 -13 -3 -13 -15 -3 -8 7 -15 19 -15 27 0 13 3 13 15 3 8 -7 15 -19 15 -27z
m33090 -68 c24 -13 30 -22 30 -49 0 -19 -7 -39 -16 -47 -14 -11 -19 -10 -35
10 -23 28 -33 65 -25 86 7 19 10 19 46 0z m4210 -132 c0 -13 -3 -13 -15 -3 -8
7 -12 16 -9 21 8 13 24 1 24 -18z m-22116 -34 c19 -15 26 -30 26 -55 0 -31 -3
-35 -22 -32 -14 2 -29 16 -40 38 -33 67 -16 90 36 49z m16766 -59 c0 -5 -4
-10 -10 -10 -5 0 -10 5 -10 10 0 6 5 10 10 10 6 0 10 -4 10 -10z m-6386 -22
c20 -28 21 -58 2 -58 -16 0 -46 42 -46 65 0 22 27 18 44 -7z m-10654 -9 c7
-11 9 -28 5 -37 -5 -15 -9 -13 -25 8 -11 14 -20 31 -20 38 0 20 28 14 40 -9z
m-13435 -28 c17 -34 11 -61 -14 -61 -19 0 -41 38 -41 70 0 31 37 25 55 -9z
m-4011 -93 c22 -31 21 -70 -1 -66 -23 4 -48 50 -40 71 9 23 23 21 41 -5z
m41336 -29 c14 -26 6 -51 -14 -43 -28 11 -32 64 -6 64 5 0 14 -9 20 -21z
m-55135 -20 c49 -22 61 -34 70 -70 5 -21 1 -31 -22 -50 -24 -20 -37 -24 -81
-21 -47 4 -55 7 -64 31 -12 30 -20 119 -12 133 7 11 53 2 109 -23z m27382 -71
c39 -37 25 -85 -15 -50 -20 16 -26 32 -23 60 2 17 11 15 38 -10z m-16157 -10
c19 -21 28 -58 13 -58 -23 1 -59 53 -48 70 9 14 12 13 35 -12z m6382 -3 c6
-14 8 -28 4 -32 -11 -12 -41 12 -44 36 -5 30 26 27 40 -4z m7422 -64 c35 -61
-7 -110 -59 -69 -25 19 -55 67 -55 87 0 6 12 17 28 25 33 18 57 6 86 -43z
m-13964 -14 c8 -14 11 -29 7 -33 -11 -11 -47 26 -47 48 0 26 21 18 40 -15z
m44056 8 c17 -17 24 -34 22 -53 -5 -44 -34 -40 -58 8 -34 66 -12 93 36 45z
m-56082 -22 c4 -9 4 -18 1 -21 -7 -8 -35 19 -35 34 0 17 27 7 34 -13z m56416
-74 c14 -26 12 -49 -4 -49 -18 0 -49 48 -42 66 7 17 33 8 46 -17z m-10036 -18
c-6 -6 -24 19 -24 34 1 6 7 1 15 -9 8 -11 12 -22 9 -25z m-2704 -13 c23 -37
23 -73 0 -73 -16 0 -49 58 -50 88 0 28 29 19 50 -15z m502 -23 c6 -27 -1 -32
-20 -13 -16 16 -15 38 2 38 7 0 16 -11 18 -25z m-32238 -37 c8 -12 13 -25 10
-30 -8 -12 -44 21 -44 39 0 20 17 16 34 -9z m35796 -48 c0 -5 -2 -10 -4 -10
-3 0 -8 5 -11 10 -3 6 -1 10 4 10 6 0 11 -4 11 -10z m-6827 -361 c22 -39 22
-59 -1 -59 -26 0 -42 20 -42 50 0 49 18 52 43 9z m-20153 -1 c22 -24 24 -36
11 -57 -14 -21 -59 1 -67 33 -12 48 20 62 56 24z m22258 -19 c-2 -6 -8 -10
-13 -10 -5 0 -11 4 -13 10 -2 6 4 11 13 11 9 0 15 -5 13 -11z m-23133 -25 c31
-31 30 -68 -2 -72 -17 -3 -26 6 -41 35 -32 63 -6 86 43 37z m36355 -49 c11
-20 11 -28 2 -37 -18 -18 -46 3 -50 36 -4 35 29 36 48 1z m-43915 -25 c3 -5 1
-10 -4 -10 -6 0 -11 5 -11 10 0 6 2 10 4 10 3 0 8 -4 11 -10z m13215 -9 c14
-27 13 -41 -5 -48 -18 -6 -44 23 -45 50 0 24 37 22 50 -2z m14120 -91 c16 -30
2 -45 -21 -24 -10 9 -19 23 -19 31 0 20 28 16 40 -7z m-40251 -102 c5 -13 5
-24 -1 -26 -12 -5 -38 18 -38 34 0 23 30 16 39 -8z m34319 -69 c2 -23 2 -23
-13 -5 -18 24 -20 39 -2 34 6 -3 13 -15 15 -29z m-15742 -54 c4 -8 3 -22 0
-31 -6 -15 -8 -15 -26 1 -11 10 -20 24 -20 32 0 18 39 17 46 -2z m10043 -29
c27 -28 24 -60 -4 -64 -24 -3 -70 52 -61 74 8 22 40 17 65 -10z m10852 -35 c7
-18 6 -22 -9 -19 -9 2 -19 14 -20 27 -5 30 18 24 29 -8z m-43601 -131 c22 -31
24 -60 3 -67 -6 -2 -23 13 -37 33 -19 28 -23 41 -14 51 16 19 24 16 48 -17z
m51883 -34 c33 -70 -8 -95 -43 -26 -27 52 -26 72 2 68 15 -2 29 -16 41 -42z
m-5063 -5 c13 -26 13 -31 -4 -31 -13 0 -26 20 -26 41 0 16 19 10 30 -10z
m-41637 -60 c20 -34 22 -51 5 -51 -20 0 -48 32 -48 57 0 32 22 29 43 -6z
m55479 -18 c22 -27 48 -84 42 -94 -10 -17 -42 -9 -57 15 -41 61 -28 128 15 79z
m6458 -54 c0 -5 -7 -9 -15 -9 -9 0 -15 9 -15 21 0 18 2 19 15 9 8 -7 15 -16
15 -21z m-13770 -11 c26 -29 27 -78 1 -78 -19 0 -64 77 -54 93 8 14 32 7 53
-15z m-32945 -18 c3 -5 1 -10 -4 -10 -6 0 -11 5 -11 10 0 6 2 10 4 10 3 0 8
-4 11 -10z m45975 -37 c16 -9 35 -30 41 -46 10 -24 9 -32 -8 -55 -40 -54 -101
-36 -124 37 -6 20 -15 40 -20 46 -5 5 -9 18 -9 28 0 18 5 19 46 13 25 -3 59
-13 74 -23z m-66542 -65 c13 -13 17 -48 5 -48 -12 0 -43 33 -43 47 0 16 22 17
38 1z m53885 -97 c22 -37 21 -41 -3 -41 -19 0 -40 33 -40 61 0 20 27 8 43 -20z
m312 -9 c29 -20 61 -100 37 -90 -11 4 -82 84 -82 92 0 8 33 7 45 -2z m-28862
-34 c16 -22 18 -30 8 -42 -17 -20 -35 -11 -54 28 -25 54 9 64 46 14z m35137 2
c0 -34 -14 -39 -30 -11 -15 29 -12 41 10 41 16 0 20 -7 20 -30z m-37538 -24
c6 -14 8 -32 4 -41 -5 -14 -9 -15 -22 -4 -21 18 -36 48 -29 59 11 18 35 10 47
-14z m33974 -102 c18 -43 18 -44 -6 -44 -28 0 -61 67 -40 80 19 12 29 4 46
-36z m-7848 14 c14 -14 16 -48 2 -48 -10 0 -30 32 -30 49 0 14 13 14 28 -1z
m1190 -27 c3 -8 -1 -12 -9 -9 -7 2 -15 10 -17 17 -3 8 1 12 9 9 7 -2 15 -10
17 -17z m2989 -36 c28 -28 34 -41 31 -67 -4 -48 -31 -48 -62 -1 -13 21 -27 53
-31 71 -9 44 16 43 62 -3z m-22157 -32 c0 -18 -29 -16 -36 2 -4 8 -3 23 1 33
6 16 7 16 21 -2 8 -11 14 -26 14 -33z m23030 -29 c0 -8 -4 -14 -10 -14 -12 0
-31 35 -23 44 9 8 33 -14 33 -30z m-13551 0 c24 -31 28 -74 7 -74 -17 0 -56
51 -56 72 0 35 22 36 49 2z m2215 -29 c3 -8 1 -15 -4 -15 -6 0 -10 7 -10 15 0
8 2 15 4 15 2 0 6 -7 10 -15z m12634 -103 c4 -27 -14 -29 -28 -3 -14 27 -13
33 8 29 9 -2 18 -13 20 -26z m15400 16 c17 -17 15 -58 -3 -58 -16 0 -35 30
-35 54 0 19 21 21 38 4z m-53504 -35 c15 -31 15 -38 3 -50 -12 -12 -18 -10
-41 17 -33 40 -35 70 -3 70 17 0 28 -10 41 -37z m44406 -3 c18 -36 19 -41 5
-47 -22 -8 -43 15 -51 55 -10 47 20 42 46 -8z m-3750 -92 c11 -18 20 -46 20
-61 0 -42 -29 -31 -57 19 -38 68 -2 106 37 42z m-9081 -27 c25 -34 27 -51 7
-51 -18 0 -46 38 -46 62 0 26 16 22 39 -11z m-14169 -22 c0 -23 -28 -25 -36
-4 -4 8 -3 22 0 31 5 13 9 14 21 4 8 -7 15 -21 15 -31z m12118 29 c13 -13 17
-58 5 -58 -14 0 -43 34 -43 52 0 20 20 24 38 6z m16865 -61 c20 -39 17 -67 -7
-67 -17 0 -60 85 -51 100 12 20 38 5 58 -33z m-29563 6 c23 -29 22 -46 -2 -51
-18 -4 -62 53 -53 68 11 18 33 11 55 -17z m-9462 -70 c2 -15 10 -23 22 -23 27
0 35 -18 16 -39 -9 -10 -16 -25 -16 -35 0 -23 -27 -31 -46 -15 -22 18 -64 85
-64 102 0 23 24 38 55 35 22 -2 31 -9 33 -25z m28746 -19 c3 -9 6 -25 6 -37
-1 -22 -1 -22 -20 2 -11 13 -20 29 -20 37 0 19 26 18 34 -2z m2974 -41 c4 -25
-16 -31 -36 -11 -20 20 -14 40 11 36 14 -2 23 -11 25 -25z m-11910 -47 c3 -12
-1 -17 -10 -14 -7 3 -15 13 -16 22 -3 12 1 17 10 14 7 -3 15 -13 16 -22z
m-25579 -5 c6 -10 7 -21 4 -25 -9 -8 -33 14 -33 30 0 20 18 17 29 -5z m11991
-41 c0 -27 -29 -25 -39 3 -5 12 -7 25 -4 30 8 13 43 -13 43 -33z m13215 -10
c26 -41 31 -65 16 -74 -18 -12 -37 5 -59 53 -27 59 -27 61 -2 61 12 0 29 -15
45 -40z m-30360 -48 c0 -18 -20 -15 -23 4 -3 10 1 15 10 12 7 -3 13 -10 13
-16z m41110 8 c3 -5 1 -10 -4 -10 -6 0 -11 5 -11 10 0 6 2 10 4 10 3 0 8 -4
11 -10z m2772 -52 c21 -20 31 -67 17 -81 -12 -12 -42 13 -53 44 -22 62 -7 77
36 37z m-35172 -113 c6 -9 18 -26 27 -37 15 -18 16 -23 3 -48 -8 -15 -21 -30
-30 -34 -24 -9 -73 20 -95 57 -24 39 -25 51 -3 72 20 21 83 14 98 -10z m18238
-5 c3 -11 1 -23 -4 -26 -13 -7 -39 14 -39 32 0 22 37 16 43 -6z m-37670 -104
c15 -45 -9 -58 -39 -21 -24 30 -30 55 -17 68 11 12 46 -18 56 -47z m24439 -2
c15 -31 -3 -54 -29 -38 -18 11 -36 62 -27 76 8 13 44 -11 56 -38z m26496 -78
c2 -10 -1 -23 -6 -28 -12 -12 -36 27 -27 43 10 15 29 5 33 -15z m-5927 -16
c25 -14 69 -84 69 -110 0 -13 -10 -24 -26 -30 -21 -8 -31 -5 -65 22 -39 32
-48 51 -28 64 7 4 7 10 1 16 -13 13 -3 48 15 48 8 0 23 -5 34 -10z m-43407
-81 c19 -33 11 -54 -16 -44 -20 8 -42 50 -34 64 12 19 31 12 50 -20z m50376 6
c19 -22 7 -41 -13 -21 -18 19 -22 36 -8 36 5 0 14 -7 21 -15z m-49505 -35 c11
-17 -5 -32 -21 -19 -8 6 -14 15 -14 20 0 12 27 11 35 -1z m42658 -65 c32 -31
31 -111 -1 -91 -16 10 -53 86 -47 97 9 14 32 11 48 -6z m2921 -26 c-11 -18
-24 -8 -24 19 1 26 1 26 15 8 8 -10 12 -23 9 -27z m-30548 -71 c4 -6 2 -14 -4
-16 -17 -5 -15 -27 4 -42 22 -19 14 -64 -12 -68 -14 -2 -28 8 -47 36 -34 48
-34 68 1 86 33 19 49 20 58 4z m12320 -13 c17 -26 13 -55 -8 -55 -13 0 -48 52
-48 71 0 19 40 8 56 -16z m8983 11 c16 -19 19 -68 4 -73 -13 -5 -56 71 -46 81
11 10 30 7 42 -8z m-24544 -55 c20 -46 14 -67 -15 -49 -23 15 -45 62 -35 77
13 21 32 10 50 -28z m3285 3 c0 -8 -4 -12 -10 -9 -5 3 -10 10 -10 16 0 5 5 9
10 9 6 0 10 -7 10 -16z m1234 -6 c8 -13 7 -21 -2 -30 -11 -11 -17 -9 -33 11
-10 12 -16 27 -13 33 9 13 35 6 48 -14z m-17215 -34 c24 -31 28 -64 7 -64 -20
0 -59 57 -52 75 8 22 22 18 45 -11z m51894 -24 c14 -37 14 -40 -2 -40 -25 0
-41 20 -41 52 0 41 24 35 43 -12z m-54484 -56 c22 -38 24 -65 5 -71 -15 -5
-77 75 -70 93 10 26 43 15 65 -22z m64949 -2 c2 -14 -2 -22 -11 -22 -17 0 -30
27 -21 41 9 16 29 4 32 -19z m-42693 -24 c14 -27 17 -40 9 -48 -17 -17 -44 0
-59 37 -20 48 -19 55 8 51 13 -2 30 -17 42 -40z m14419 20 c20 -28 21 -58 2
-58 -13 0 -56 57 -56 74 0 16 40 4 54 -16z m10511 -49 c-4 -5 -9 -9 -13 -9
-12 0 -42 57 -34 64 9 10 54 -43 47 -55z m2701 -24 c20 -30 11 -49 -17 -35
-11 6 -19 21 -19 35 0 32 15 32 36 0z m-3323 -290 c20 -43 22 -65 4 -65 -18 0
-43 28 -56 61 -19 52 28 55 52 4z m336 -6 c21 -37 22 -43 8 -56 -8 -9 -20 -12
-26 -9 -17 11 -53 85 -46 96 14 22 42 8 64 -31z m-25254 -75 l33 -36 -20 -34
c-11 -19 -25 -34 -32 -34 -19 0 -66 53 -75 86 -11 41 -4 54 31 54 22 0 39 -10
63 -36z m33475 -30 c0 -8 -4 -14 -10 -14 -13 0 -41 56 -32 64 8 9 42 -31 42
-50z m3250 14 c22 -24 25 -78 4 -85 -14 -5 -57 74 -50 92 8 21 22 19 46 -7z
m-20041 -72 c13 -33 12 -39 -3 -54 -17 -16 -19 -15 -47 18 -30 35 -39 85 -16
93 21 8 51 -18 66 -57z m-22616 9 c7 -16 -8 -29 -23 -20 -15 9 -12 35 4 35 8
0 16 -7 19 -15z m-8693 -51 c0 -16 -16 -19 -25 -4 -8 13 4 32 16 25 5 -4 9
-13 9 -21z m39975 -21 c14 -21 25 -43 25 -50 0 -16 -33 -34 -46 -25 -12 9 -44
79 -44 97 0 29 39 15 65 -22z m3561 -65 c3 -11 2 -24 -3 -29 -13 -13 -47 26
-40 45 8 20 34 10 43 -16z m22344 -27 c0 -34 -9 -44 -27 -30 -13 12 -18 51 -7
62 13 13 34 -7 34 -32z m-42195 -21 c18 -35 19 -60 3 -60 -28 0 -70 53 -61 76
9 24 42 15 58 -16z m5625 -26 c13 -34 13 -44 -3 -44 -13 0 -37 40 -37 60 0 21
31 9 40 -16z m-20706 -17 c11 -30 6 -40 -17 -31 -19 7 -28 29 -20 49 8 22 26
13 37 -18z m49224 -12 c83 -35 109 -102 56 -144 -67 -52 -144 9 -144 114 0 47
26 55 88 30z m6092 -23 c19 -16 43 -31 53 -35 23 -8 22 -28 -4 -71 -21 -35
-49 -46 -75 -28 -23 16 -64 88 -64 114 0 25 21 47 45 48 6 0 26 -13 45 -28z
m-42962 -20 c3 -9 -2 -13 -14 -10 -9 1 -19 9 -22 16 -3 9 2 13 14 10 9 -1 19
-9 22 -16z m-11870 -24 c21 -33 20 -48 -3 -48 -18 0 -58 57 -50 70 12 19 33
10 53 -22z m40282 0 c24 -26 27 -78 5 -78 -19 0 -50 63 -42 84 8 21 12 20 37
-6z m-7620 -119 c0 -18 -2 -19 -15 -9 -8 7 -15 16 -15 21 0 5 7 9 15 9 9 0 15
-9 15 -21z m-26890 -40 c0 -17 -29 -9 -40 11 -17 32 0 47 22 21 10 -13 18 -27
18 -32z m31969 -30 c14 -42 14 -49 -3 -49 -18 0 -46 38 -46 62 0 32 37 21 49
-13z m-6889 6 c0 -8 -4 -15 -10 -15 -5 0 -10 7 -10 15 0 8 5 15 10 15 6 0 10
-7 10 -15z m-24645 -36 c9 -17 14 -38 10 -47 -5 -14 -11 -12 -36 16 -34 38
-37 62 -9 62 12 0 26 -12 35 -31z m15149 -12 c6 -9 7 -19 3 -23 -9 -9 -37 15
-37 33 0 18 20 12 34 -10z m-28797 -110 c-7 -21 -26 -18 -42 7 -10 15 -14 33
-10 43 6 16 9 15 31 -11 14 -15 23 -33 21 -39z m14033 -3 c0 -25 -35 -12 -38
14 -3 21 -1 22 17 12 12 -6 21 -18 21 -26z m7370 -30 c9 -22 5 -54 -7 -54 -17
0 -42 24 -53 51 -11 26 -11 32 0 39 19 12 49 -6 60 -36z m-7690 -70 c0 -14 -3
-14 -15 -4 -8 7 -15 14 -15 16 0 2 7 4 15 4 8 0 15 -7 15 -16z m31659 -17 c15
-19 18 -59 4 -64 -11 -4 -43 45 -43 67 0 14 25 13 39 -3z m-35207 -104 c22
-19 24 -43 3 -43 -14 0 -35 29 -35 49 0 16 11 14 32 -6z m27449 -123 c22 -12
26 -50 4 -50 -14 0 -35 29 -35 49 0 14 6 14 31 1z m-10163 -22 c17 -17 15 -58
-3 -58 -12 0 -45 47 -45 65 0 10 36 5 48 -7z m18550 -116 c2 -18 -1 -32 -7
-32 -15 0 -33 39 -27 57 10 24 31 9 34 -25z m3991 -18 c26 -33 27 -64 3 -64
-19 0 -52 47 -52 74 0 25 26 19 49 -10z m-17039 -67 c21 -40 23 -49 11 -57
-21 -13 -46 4 -65 44 -23 48 -21 68 7 64 15 -2 30 -19 47 -51z m-29055 -9 c9
-14 11 -24 5 -26 -14 -5 -40 17 -40 34 0 21 17 17 35 -8z m22969 -4 c4 -9 4
-19 2 -22 -10 -9 -36 8 -36 23 0 20 26 19 34 -1z m2101 -34 c14 -28 14 -31 -1
-37 -19 -7 -44 20 -44 49 0 28 28 21 45 -12z m18143 -2 c17 -17 15 -68 -1 -68
-14 0 -37 40 -37 65 0 18 21 20 38 3z m-4968 -34 c0 -8 -4 -14 -10 -14 -5 0
-10 9 -10 21 0 11 5 17 10 14 6 -3 10 -13 10 -21z m-29407 -48 c20 -21 10 -76
-14 -76 -11 0 -23 10 -29 24 -5 13 -14 27 -19 31 -15 9 -14 42 2 48 14 5 39
-6 60 -27z m-12163 -118 c0 -26 -26 -22 -49 8 -24 30 -27 50 -8 57 15 6 57
-42 57 -65z m37243 -77 c23 -39 21 -51 -7 -51 -18 0 -27 8 -35 31 -15 43 -14
49 7 49 10 0 25 -13 35 -29z m12031 -36 c19 -29 21 -51 4 -61 -15 -10 -48 32
-48 62 0 31 23 31 44 -1z m-38285 -46 c21 -35 17 -69 -8 -69 -19 0 -61 51 -61
73 0 38 45 36 69 -4z m1008 -24 c13 -28 14 -38 4 -48 -10 -9 -18 -5 -41 20
-32 35 -31 63 1 63 12 0 26 -13 36 -35z m31805 -17 c-16 -16 -37 4 -28 28 6
16 8 16 23 1 13 -13 15 -19 5 -29z m-54842 -3 c24 -39 23 -68 -2 -73 -17 -3
-58 62 -58 93 0 28 38 16 60 -20z m57890 -12 c24 -30 24 -78 0 -78 -20 0 -55
67 -47 88 9 24 22 21 47 -10z m3794 1 c43 -42 44 -88 4 -82 -25 3 -64 70 -53
88 9 15 31 12 49 -6z m-8939 -54 c11 -17 -5 -32 -21 -19 -8 6 -14 15 -14 20 0
12 27 11 35 -1z m12380 -13 c0 -26 -20 -25 -23 2 -3 16 1 22 10 19 7 -3 13
-12 13 -21z m-32829 -63 c42 -44 47 -94 12 -118 -12 -9 -25 -16 -29 -16 -17 0
-99 91 -99 110 0 69 62 82 116 24z m23931 -39 c3 -9 3 -19 -1 -22 -7 -7 -36
16 -36 28 0 15 30 10 37 -6z m-40843 -36 c-8 -13 -24 -1 -24 18 0 13 3 13 15
3 8 -7 12 -16 9 -21z m-11174 -4 c0 -8 -4 -15 -10 -15 -5 0 -10 7 -10 15 0 8
5 15 10 15 6 0 10 -7 10 -15z m49545 -36 c9 -27 -12 -50 -25 -29 -14 22 -12
50 4 50 8 0 18 -9 21 -21z m8763 -43 c16 -40 7 -61 -21 -51 -17 7 -50 92 -41
107 10 16 46 -16 62 -56z m-38574 12 c22 -30 20 -48 -4 -48 -20 0 -40 27 -40
54 0 23 26 19 44 -6z m37796 -23 c16 -30 7 -55 -20 -55 -22 0 -40 34 -40 75 0
22 2 24 24 14 13 -6 29 -22 36 -34z m-17641 -59 c29 -47 28 -76 -4 -76 -18 0
-25 5 -25 19 0 10 -7 24 -15 31 -8 7 -15 23 -15 36 0 36 34 31 59 -10z m13929
2 c15 -15 16 -58 1 -58 -16 0 -38 31 -39 53 0 20 20 23 38 5z m-7248 -24 c0
-8 -4 -12 -10 -9 -5 3 -10 10 -10 16 0 5 5 9 10 9 6 0 10 -7 10 -16z m-4643
-62 c12 -28 11 -33 -3 -39 -20 -8 -32 5 -40 46 -6 28 -4 33 11 30 10 -2 25
-19 32 -37z m-21509 9 c3 -8 -1 -12 -9 -9 -7 2 -15 10 -17 17 -3 8 1 12 9 9 7
-2 15 -10 17 -17z m-848 -22 c14 -25 12 -39 -3 -39 -21 0 -50 37 -44 54 8 19
34 11 47 -15z m47890 0 c0 -10 -4 -19 -9 -19 -10 0 -21 36 -14 44 10 10 23 -5
23 -25z m-37530 -19 c0 -5 -4 -10 -9 -10 -6 0 -13 5 -16 10 -3 6 1 10 9 10 9
0 16 -4 16 -10z m22194 -42 c20 -28 21 -58 1 -58 -14 0 -45 48 -45 70 0 18 28
11 44 -12z m-6879 -30 c8 -20 10 -37 5 -42 -14 -14 -50 23 -50 51 0 34 29 29
45 -9z m16058 2 c18 -29 18 -30 -1 -30 -15 0 -42 35 -42 55 0 17 29 0 43 -25z
m-9958 -7 c14 -15 25 -33 25 -39 0 -14 -43 -26 -64 -18 -16 6 -39 61 -30 75
10 17 44 9 69 -18z m-22069 -48 c18 -28 15 -60 -6 -60 -17 0 -54 60 -45 75 11
17 34 11 51 -15z m26342 -7 c17 -17 15 -68 -1 -68 -14 0 -37 40 -37 65 0 18
21 20 38 3z m-61574 -63 c9 -14 14 -30 11 -35 -10 -16 -34 -11 -45 9 -26 49 4
71 34 26z m28576 -25 c23 -43 -18 -55 -45 -14 -22 33 -13 59 15 44 11 -6 24
-19 30 -30z m43439 -60 c2 0 1 -19 -2 -42 -13 -94 -86 -77 -117 26 -16 52 -1
60 64 35 28 -10 53 -19 55 -19z m-59015 -196 c9 -22 8 -24 -9 -18 -8 4 -15 12
-15 20 0 19 16 18 24 -2z m13680 -50 c4 -9 4 -19 2 -21 -8 -8 -26 8 -26 23 0
19 16 18 24 -2z m40741 -64 c19 -37 19 -60 0 -60 -16 0 -48 66 -39 81 10 16
23 9 39 -21z m-63683 -5 c6 -14 8 -28 4 -32 -11 -12 -41 12 -44 36 -5 30 26
27 40 -4z m28303 -116 c-10 -15 -24 -10 -41 16 -24 37 -6 54 23 21 13 -15 21
-32 18 -37z m31676 41 c20 -11 27 -64 10 -74 -12 -8 -38 24 -46 57 -8 29 3 34
36 17z m-64084 -32 c25 -23 30 -52 11 -64 -14 -9 -58 40 -58 67 0 25 18 24 47
-3z m55183 12 c0 -5 -4 -10 -10 -10 -5 0 -10 5 -10 10 0 6 5 10 10 10 6 0 10
-4 10 -10z m-37826 -146 c8 -22 8 -24 -8 -24 -15 0 -28 24 -19 34 11 10 21 7
27 -10z m21702 -15 c11 -22 13 -34 5 -42 -15 -15 -51 20 -51 50 0 33 26 29 46
-8z m-21438 -12 c24 -22 31 -80 11 -93 -15 -9 -78 56 -79 82 0 24 19 46 34 37
6 -3 21 -15 34 -26z m25214 -171 c4 -6 8 -32 8 -57 0 -54 -19 -69 -55 -45 -62
41 -71 77 -28 112 28 22 56 19 75 -10z m-808 -8 c21 -30 2 -52 -20 -24 -16 23
-19 46 -5 46 6 0 17 -10 25 -22z m4956 -43 c0 -8 -4 -15 -10 -15 -5 0 -10 7
-10 15 0 8 5 15 10 15 6 0 10 -7 10 -15z m15116 -29 c11 -8 33 -32 48 -54 35
-51 24 -82 -29 -82 -51 0 -75 31 -75 97 0 58 14 68 56 39z m-3837 -35 c6 -10
7 -21 4 -25 -9 -8 -33 14 -33 30 0 20 18 17 29 -5z m-25071 -9 c14 -10 33 -68
24 -76 -13 -13 -32 -4 -52 24 -18 25 -19 34 -10 45 14 17 20 18 38 7z m-16665
-36 c3 -7 1 -18 -5 -24 -6 -6 -8 -16 -6 -22 3 -9 9 -7 22 5 16 17 18 16 47
-11 31 -29 38 -54 16 -54 -8 0 -22 9 -32 20 -10 11 -22 20 -27 20 -11 0 -10
-38 2 -45 20 -12 10 -25 -20 -25 -44 0 -80 44 -80 97 0 31 4 43 18 46 35 9 60
7 65 -7z m44947 -66 c37 -47 39 -93 4 -98 -34 -5 -73 73 -65 131 3 19 32 3 61
-33z m-5356 -89 c19 -21 18 -52 -1 -58 -14 -5 -47 53 -38 67 9 15 20 12 39 -9z
m-4016 -39 c2 -14 -2 -22 -11 -22 -17 0 -30 27 -21 41 9 16 29 4 32 -19z
m12660 -4 c14 -14 16 -58 3 -58 -9 0 -41 27 -41 35 0 11 13 35 19 35 4 0 12
-5 19 -12z m-48590 -80 c14 -18 19 -61 7 -64 -5 -2 -18 8 -28 22 -27 36 -7 75
21 42z m23511 -71 c16 -20 25 -74 13 -81 -19 -11 -39 5 -55 44 -8 21 -12 41
-9 44 10 11 39 6 51 -7z m21601 -68 c0 -23 -28 -25 -36 -4 -4 8 -3 22 0 31 5
13 9 14 21 4 8 -7 15 -21 15 -31z m-8679 -62 c-17 -17 -56 26 -47 50 7 16 10
15 32 -11 18 -20 22 -32 15 -39z m-13893 -139 c18 -18 15 -28 -8 -28 -13 0
-20 7 -20 20 0 23 10 26 28 8z m-25750 -73 c16 -35 15 -55 -2 -55 -18 0 -46
38 -46 62 0 27 35 22 48 -7z m45826 3 c22 -30 20 -48 -4 -48 -22 0 -44 34 -36
56 8 20 23 17 40 -8z m-11046 -22 c3 -12 -1 -17 -10 -14 -7 3 -15 13 -16 22
-3 12 1 17 10 14 7 -3 15 -13 16 -22z m17647 -35 c3 -5 1 -12 -5 -16 -5 -3
-10 1 -10 9 0 18 6 21 15 7z m-57428 -81 c18 -37 -1 -49 -32 -20 -14 13 -25
30 -25 37 0 24 43 10 57 -17z m51581 -2 c17 -17 15 -48 -3 -48 -17 0 -39 36
-30 50 8 13 18 13 33 -2z m8817 -59 c4 -5 4 -22 1 -35 -6 -21 -9 -24 -21 -14
-19 16 -20 60 -1 60 8 0 18 -5 21 -11z m-12994 -36 c11 -29 -1 -50 -21 -38
-14 9 -29 47 -23 58 10 16 34 5 44 -20z m-28971 -21 c13 -11 23 -33 27 -60 5
-36 3 -42 -13 -42 -29 0 -40 11 -58 54 -26 62 -4 87 44 48z m7928 -74 c7 -7
12 -29 12 -50 0 -32 -3 -38 -21 -38 -20 0 -49 50 -49 85 0 18 41 20 58 3z
m13772 -24 c13 -33 13 -34 -5 -34 -17 0 -39 36 -30 50 11 17 25 11 35 -16z
m-25249 3 c-1 -12 -15 -9 -19 4 -3 6 1 10 8 8 6 -3 11 -8 11 -12z m-20286
-100 c-4 -8 -13 -13 -21 -10 -15 5 -19 35 -7 47 11 11 34 -19 28 -37z m27801
-104 c18 -24 17 -53 -1 -53 -16 0 -48 54 -38 64 11 11 25 7 39 -11z m879 -29
c18 -7 48 -71 39 -85 -3 -5 -16 -9 -29 -9 -17 0 -29 11 -44 41 -28 52 -16 72
34 53z m11640 -24 c17 -32 13 -50 -9 -50 -16 0 -46 43 -46 65 0 27 39 17 55
-15z m1852 -3 c27 -24 40 -81 24 -101 -15 -18 -41 -11 -82 24 -32 27 -33 29
-19 56 30 60 33 61 77 21z m-39303 -28 c48 -57 23 -102 -33 -57 -42 32 -41 82
1 87 3 1 18 -13 32 -30z m58510 -49 c59 -66 41 -127 -29 -100 -31 12 -45 39
-45 88 0 66 22 70 74 12z m-8237 -163 c18 -35 10 -95 -14 -104 -20 -8 -31 12
-39 74 -8 66 0 91 22 72 8 -7 22 -26 31 -42z m15119 27 c7 -27 -7 -50 -25 -40
-6 4 -11 20 -11 37 0 37 27 40 36 3z m-19358 4 c14 -14 16 -44 2 -53 -12 -7
-44 41 -35 55 8 13 18 13 33 -2z m7577 -48 c11 -12 15 -26 11 -37 -7 -16 -9
-15 -26 7 -34 43 -21 70 15 30z m-12045 -89 c14 -27 13 -41 -5 -41 -14 0 -35
29 -35 49 0 18 29 12 40 -8z m7605 -12 c33 -40 32 -92 -1 -97 -34 -5 -61 37
-56 87 5 50 21 53 57 10z m-20501 -5 c4 -9 4 -19 2 -21 -8 -8 -26 8 -26 23 0
19 16 18 24 -2z m-22323 -67 c13 -23 -1 -40 -24 -31 -19 7 -33 47 -22 64 8 13
30 -3 46 -33z m27087 -209 c17 -17 15 -58 -2 -58 -17 0 -49 47 -41 60 8 14 29
12 43 -2z m5079 -65 c9 -69 -38 -69 -59 -1 -11 36 -10 42 7 54 26 19 45 0 52
-53z m-20123 15 c22 -31 21 -70 0 -66 -24 4 -58 53 -51 72 9 23 33 20 51 -6z
m22836 -15 c24 -31 23 -66 -2 -71 -20 -4 -74 71 -63 87 11 19 43 12 65 -16z
m-13280 -12 c15 -29 13 -81 -4 -81 -31 0 -69 73 -49 93 13 14 43 7 53 -12z
m9229 -71 c3 -25 3 -25 -18 -6 -26 23 -27 39 -3 34 9 -2 19 -14 21 -28z
m-9966 -21 c6 -9 7 -25 3 -35 -6 -16 -9 -15 -26 11 -11 17 -20 34 -20 38 0 14
32 3 43 -14z m27789 -36 c20 -18 24 -48 6 -59 -14 -9 -38 23 -38 53 0 27 7 29
32 6z m-39288 -23 c26 -32 25 -63 -2 -58 -19 4 -64 67 -56 79 10 17 32 9 58
-21z m32376 -61 c0 -10 -4 -19 -9 -19 -14 0 -33 28 -27 39 10 16 36 1 36 -20z
m6736 6 c18 -27 13 -55 -9 -55 -14 0 -37 40 -37 65 0 24 28 17 46 -10z
m-17931 -25 c22 -42 19 -60 -9 -60 -19 0 -27 8 -36 35 -19 58 17 79 45 25z
m27958 -144 c17 -36 17 -40 2 -55 -15 -15 -18 -14 -36 8 -25 31 -26 94 -2 89
10 -2 26 -21 36 -42z m-60118 -52 c28 -18 36 -74 11 -74 -20 0 -46 39 -46 67
0 27 3 28 35 7z m43765 -95 c0 -11 -4 -17 -10 -14 -5 3 -10 13 -10 21 0 8 5
14 10 14 6 0 10 -9 10 -21z m-11764 -145 c15 -37 7 -63 -14 -50 -16 10 -42 67
-36 77 12 20 36 7 50 -27z m-27994 9 c19 -17 25 -53 9 -53 -12 0 -41 40 -41
57 0 17 10 16 32 -4z m-12800 -80 c20 -18 24 -53 6 -53 -19 0 -48 31 -48 52 0
22 18 23 42 1z m35576 -47 c10 -19 11 -31 4 -38 -14 -14 -52 25 -52 53 0 30
32 20 48 -15z m-12186 -21 c9 -19 9 -28 0 -37 -15 -15 -52 17 -52 44 0 28 38
23 52 -7z m19377 -12 c14 -29 2 -49 -23 -40 -24 9 -20 67 4 67 4 0 12 -12 19
-27z m-36464 -73 c3 -5 -1 -10 -9 -10 -9 0 -16 5 -16 10 0 6 4 10 9 10 6 0 13
-4 16 -10z m56035 -25 c21 -14 44 -33 50 -44 24 -45 3 -111 -36 -111 -18 0
-83 60 -85 80 -1 8 -1 34 0 58 1 50 14 53 71 17z m5090 10 c0 -8 -7 -15 -15
-15 -8 0 -15 7 -15 15 0 8 7 15 15 15 8 0 15 -7 15 -15z m-32670 -16 c0 -24
-23 -21 -28 4 -2 10 3 17 12 17 10 0 16 -9 16 -21z m-9318 -6 c17 -15 26 -63
11 -63 -15 0 -53 45 -53 62 0 22 18 23 42 1z m15108 -68 c9 -17 10 -29 4 -35
-13 -13 -59 34 -49 49 11 19 31 12 45 -14z m-20756 -111 c4 -9 4 -19 2 -21 -8
-8 -26 8 -26 23 0 19 16 18 24 -2z m22344 -27 c2 -19 -1 -27 -12 -27 -17 0
-31 34 -21 50 11 18 30 5 33 -23z m3264 -74 c11 -9 18 -30 18 -50 0 -30 -3
-34 -22 -31 -24 3 -45 54 -35 82 8 20 16 20 39 -1z m13571 -140 c20 -24 30
-64 18 -82 -19 -30 -67 34 -57 75 8 29 17 30 39 7z m896 -54 c21 -47 17 -79
-10 -79 -23 0 -49 48 -49 90 0 24 4 30 20 30 15 0 26 -12 39 -41z m-16509 -35
c0 -31 -23 -28 -28 4 -2 15 2 22 12 22 11 0 16 -9 16 -26z m-2342 -47 c2 -10
-3 -17 -11 -17 -16 0 -30 24 -19 34 10 10 27 1 30 -17z m12744 -41 c11 -26 5
-56 -11 -56 -11 0 -41 51 -41 70 0 21 41 10 52 -14z m-53505 -26 c20 -39 -3
-51 -33 -17 -13 15 -24 33 -24 38 0 20 45 4 57 -21z m60491 8 c17 -17 15 -48
-3 -48 -14 0 -35 29 -35 49 0 15 23 14 38 -1z m-36618 -68 c0 -5 -2 -10 -4
-10 -3 0 -8 5 -11 10 -3 6 -1 10 4 10 6 0 11 -4 11 -10z m8825 -10 c17 -19 15
-50 -4 -50 -13 0 -43 49 -36 60 9 15 20 12 40 -10z m-7619 -45 c17 -43 17 -45
-1 -45 -17 0 -49 56 -40 70 12 19 26 10 41 -25z m34154 -36 c0 -24 -23 -21
-28 4 -2 10 3 17 12 17 10 0 16 -9 16 -21z m-27636 -39 c22 -8 26 -16 26 -48
0 -45 -4 -52 -29 -45 -22 6 -55 67 -48 87 7 19 16 20 51 6z m-9974 -85 c19
-20 21 -27 10 -40 -7 -8 -16 -15 -21 -15 -9 0 -39 53 -39 70 0 18 26 11 50
-15z m23553 -20 c32 -65 -14 -74 -49 -9 -17 30 -17 36 -4 44 22 14 33 7 53
-35z m-32029 19 c16 -6 22 -35 9 -47 -10 -11 -33 13 -33 34 0 21 1 22 24 13z
m29580 -30 c18 -17 21 -40 6 -49 -8 -5 -40 43 -40 60 0 10 19 5 34 -11z
m-37095 -25 c17 -22 20 -34 12 -42 -14 -14 -61 28 -61 55 0 28 24 22 49 -13z
m53274 17 c6 -16 -2 -28 -14 -20 -12 7 -11 34 0 34 5 0 11 -6 14 -14z m-19085
-38 c4 -33 -21 -39 -38 -9 -16 30 -12 43 13 39 16 -2 23 -11 25 -30z m6770 0
c17 -17 15 -58 -3 -58 -18 0 -38 37 -31 56 7 17 18 18 34 2z m-24533 -103 c29
-39 27 -65 -4 -65 -19 0 -61 58 -61 86 0 26 37 14 65 -21z m2513 13 c16 -21
24 -58 13 -58 -16 0 -51 38 -51 55 0 18 24 20 38 3z m1291 -24 c15 -33 14 -44
-4 -44 -19 0 -49 46 -41 65 7 20 31 9 45 -21z m24261 -24 c24 -47 25 -69 5
-76 -17 -7 -63 20 -72 42 -7 20 16 74 33 74 7 0 23 -18 34 -40z m-10492 -5
c17 -36 15 -65 -4 -72 -31 -12 -70 70 -43 88 23 14 35 10 47 -16z m10110 -17
c17 -17 15 -38 -3 -38 -12 0 -35 28 -35 44 0 11 26 6 38 -6z m-4707 -99 c7
-15 8 -24 0 -32 -14 -14 -41 9 -41 34 0 26 27 24 41 -2z m-25692 -18 c24 -33
28 -71 7 -71 -17 0 -66 63 -66 84 0 26 37 18 59 -13z m10601 -3 c23 -26 26
-48 5 -48 -16 0 -35 30 -35 54 0 21 5 20 30 -6z m10199 -31 c6 -8 14 -28 17
-45 5 -24 3 -32 -8 -32 -31 0 -68 67 -46 82 18 11 24 10 37 -5z m-27256 -91
c10 -31 6 -39 -16 -30 -19 7 -31 39 -22 54 11 17 28 6 38 -24z m25535 -79 c3
-38 0 -48 -18 -57 -18 -10 -26 -8 -48 12 -48 42 -49 57 -3 95 37 32 65 12 69
-50z m16147 -17 c14 -31 15 -43 6 -54 -16 -19 -33 -12 -54 23 -20 34 -22 68
-4 74 21 7 34 -3 52 -43z m885 -32 c25 -40 23 -73 -5 -73 -13 0 -24 12 -33 37
-25 66 3 92 38 36z m-43746 -40 c14 -40 -2 -48 -30 -15 -30 35 -31 49 -2 45
14 -2 26 -14 32 -30z m28466 -70 c20 -33 12 -62 -14 -52 -14 5 -46 56 -46 73
0 24 41 10 60 -21z m-33812 -92 c3 -12 -1 -17 -10 -14 -7 3 -15 13 -16 22 -3
12 1 17 10 14 7 -3 15 -13 16 -22z m4191 -97 c8 -14 11 -34 7 -44 -6 -17 -8
-16 -31 5 -29 28 -34 73 -8 68 10 -2 24 -15 32 -29z m30265 -21 c12 -49 3 -56
-39 -34 -42 23 -52 46 -28 64 31 22 57 11 67 -30z m24741 -259 c18 -34 19 -51
3 -67 -19 -19 -58 24 -58 63 0 17 3 34 6 38 11 11 35 -5 49 -34z m7779 5 c17
-44 -6 -82 -31 -49 -20 28 -17 65 6 65 10 0 22 -7 25 -16z m-59762 -139 c22
-46 20 -62 -7 -52 -21 9 -55 66 -48 83 10 27 33 14 55 -31z m55568 26 c5 -11
10 -33 10 -50 0 -24 -4 -31 -19 -31 -21 0 -47 60 -37 85 8 21 33 18 46 -4z
m-69001 -115 c30 -32 33 -80 5 -84 -25 -3 -64 50 -64 87 0 29 30 27 59 -3z
m26163 -91 c13 -29 8 -38 -15 -29 -18 6 -30 32 -21 45 10 16 24 10 36 -16z
m-5125 -141 c-4 -4 -14 1 -22 12 -22 29 -18 41 7 17 12 -13 19 -26 15 -29z
m47259 -9 c7 -29 -1 -45 -25 -45 -13 0 -20 10 -24 37 -4 20 -4 40 -1 45 9 14
43 -11 50 -37z m-43772 10 c20 -30 21 -55 2 -55 -17 0 -56 46 -56 66 0 23 37
16 54 -11z m-25721 -115 c21 -22 28 -37 25 -62 -5 -50 -37 -50 -71 0 -54 78
-17 129 46 62z m33675 -65 c16 -34 15 -45 -3 -45 -16 0 -48 54 -38 64 13 13
30 5 41 -19z m4737 5 c3 -5 1 -10 -4 -10 -6 0 -11 5 -11 10 0 6 2 10 4 10 3 0
8 -4 11 -10z m11198 -95 c14 -13 13 -55 -1 -55 -10 0 -31 35 -32 53 0 21 14
22 33 2z m-668 -45 c20 -39 19 -50 -5 -50 -22 0 -45 43 -36 67 9 21 24 15 41
-17z m-14325 -12 c32 -36 38 -63 15 -72 -17 -6 -71 37 -80 64 -15 49 24 53 65
8z m26979 -104 c25 -42 27 -62 6 -71 -30 -11 -78 49 -68 85 8 33 38 26 62 -14z
m-52739 -105 c7 -11 9 -24 5 -27 -7 -7 -35 25 -35 40 0 16 19 8 30 -13z
m29234 -15 c20 -19 21 -44 3 -44 -19 0 -50 37 -42 49 9 15 21 14 39 -5z m125
-56 c14 -40 14 -45 -4 -52 -21 -8 -55 28 -55 58 0 46 43 41 59 -6z m23341 -39
c0 -23 -28 -25 -36 -4 -4 8 -3 22 0 31 5 13 9 14 21 4 8 -7 15 -21 15 -31z
m-35345 -130 c8 -23 1 -34 -14 -24 -13 8 -15 45 -2 45 5 0 13 -9 16 -21z
m-5115 -93 c15 -30 4 -51 -22 -41 -19 8 -43 60 -33 74 9 16 38 -2 55 -33z
m-3411 -65 c11 -20 5 -31 -15 -31 -14 0 -27 28 -18 41 9 14 23 10 33 -10z
m24441 -40 c5 -11 10 -33 10 -50 0 -26 -4 -31 -25 -31 -14 0 -25 5 -25 11 0 5
-16 17 -36 25 -42 18 -40 35 7 51 48 17 57 16 69 -6z m-17358 -8 c19 -17 25
-63 8 -63 -13 0 -51 61 -44 72 8 12 15 10 36 -9z m-1165 -15 c4 -7 13 -28 19
-46 10 -28 10 -34 -3 -39 -9 -4 -23 -2 -32 4 -22 13 -44 61 -37 79 7 17 42 19
53 2z m-12604 -82 c17 -13 22 -37 10 -49 -10 -11 -43 24 -43 45 0 21 8 22 33
4z m32635 -64 c2 -7 -3 -12 -12 -12 -9 0 -16 7 -16 16 0 17 22 14 28 -4z
m-13078 -7 c7 -8 19 -15 26 -15 8 0 14 7 14 15 0 8 7 15 15 15 8 0 15 -7 15
-15 0 -8 -7 -15 -15 -15 -8 0 -15 -9 -15 -20 0 -11 4 -20 9 -20 16 0 22 -33 8
-47 -30 -30 -107 44 -107 102 0 19 34 20 50 0z m-4750 -44 c13 -26 13 -51 -1
-51 -16 0 -38 31 -39 53 0 23 27 22 40 -2z m40855 -106 c0 -36 -29 -47 -38
-15 -8 30 2 52 22 48 10 -2 16 -14 16 -33z m-61330 9 c16 -6 45 -54 45 -74 0
-5 -9 -10 -20 -10 -20 0 -50 45 -50 75 0 17 2 18 25 9z m57227 -18 c13 -29 5
-56 -17 -56 -19 0 -40 43 -32 64 9 24 36 19 49 -8z m-35623 -65 c-14 -4 -30
19 -22 33 3 5 12 1 20 -10 10 -13 10 -20 2 -23z m-2521 -94 c4 -31 -12 -36
-28 -8 -15 29 -12 43 8 39 10 -2 18 -14 20 -31z m17657 -77 c3 -11 3 -25 0
-30 -10 -16 -35 8 -35 31 0 25 27 24 35 -1z m5993 -188 c4 -27 -14 -29 -28 -3
-14 27 -13 33 8 29 9 -2 18 -13 20 -26z m13318 -79 c18 -24 17 -43 -1 -43 -14
0 -35 29 -35 49 0 17 21 13 36 -6z m-3656 -24 c14 -25 6 -51 -12 -44 -18 7
-40 44 -33 55 10 17 34 11 45 -11z m-46761 -45 c23 -30 28 -64 9 -64 -17 0
-61 66 -53 79 10 17 22 13 44 -15z m21796 -40 c26 -62 -9 -77 -45 -19 -23 38
-20 55 10 55 13 0 25 -12 35 -36z m27989 -25 c31 -33 37 -47 34 -77 -4 -53
-37 -56 -83 -8 -38 40 -43 57 -20 76 8 7 15 21 15 31 0 29 14 23 54 -22z
m-52620 -2 c12 -19 3 -32 -19 -24 -17 7 -21 51 -3 45 6 -2 16 -12 22 -21z
m12206 -57 c26 -14 49 -88 30 -100 -19 -12 -32 -4 -57 36 -31 48 -30 65 5 73
2 1 12 -4 22 -9z m-5460 -86 c0 -8 -4 -14 -10 -14 -5 0 -10 9 -10 21 0 11 5
17 10 14 6 -3 10 -13 10 -21z m8250 -116 c0 -10 -4 -18 -10 -18 -17 0 -43 49
-35 67 6 16 8 15 25 -7 11 -14 20 -33 20 -42z m19479 18 c7 -8 11 -36 9 -63
-3 -43 -6 -48 -29 -51 -19 -2 -35 7 -62 38 -21 22 -37 45 -37 50 0 6 16 10 35
10 22 0 38 6 41 15 8 19 28 19 43 1z m29636 -64 c0 -31 -19 -28 -23 4 -3 18 0
25 10 22 7 -3 13 -14 13 -26z m355 -57 c20 -21 22 -30 14 -53 -13 -37 -36 -38
-56 -1 -39 68 -8 107 42 54z m-59610 -15 c0 -5 -4 -10 -10 -10 -5 0 -10 5 -10
10 0 6 5 10 10 10 6 0 10 -4 10 -10z m44385 -46 c20 -20 15 -39 -11 -39 -13 0
-20 8 -22 28 -4 30 9 35 33 11z m-39611 -16 c22 -32 20 -58 -4 -58 -23 0 -46
40 -37 64 9 22 23 20 41 -6z m34646 7 c17 -20 8 -50 -14 -50 -23 0 -41 27 -33
49 8 20 31 21 47 1z m-45970 -25 c22 -22 27 -65 8 -76 -14 -9 -58 40 -58 65 0
36 21 40 50 11z m14530 -19 c7 -13 7 -22 0 -26 -15 -9 -30 4 -30 26 0 25 16
25 30 0z m15997 -132 c23 -34 21 -59 -6 -59 -18 1 -73 68 -65 81 12 20 50 7
71 -22z m29813 -128 c-1 -17 -20 -33 -34 -28 -16 7 -23 57 -9 71 7 7 43 -29
43 -43z m-25891 -5 c8 -9 8 -16 2 -20 -6 -4 -15 3 -21 14 -12 23 2 27 19 6z
m-14625 -147 c21 -24 24 -34 16 -50 -6 -10 -15 -19 -19 -19 -11 0 -71 67 -71
79 0 32 44 26 74 -10z m32056 -16 c38 -87 9 -119 -54 -60 -20 19 -36 37 -36
40 0 8 54 67 62 67 4 0 16 -21 28 -47z m-37130 -113 c12 -23 6 -40 -15 -40
-13 0 -25 21 -25 46 0 21 28 17 40 -6z m7021 -11 c7 -15 8 -24 0 -32 -14 -14
-41 9 -41 34 0 26 27 24 41 -2z m10469 1 c0 -13 -5 -18 -15 -14 -8 4 -15 12
-15 20 0 8 7 14 15 14 8 0 15 -9 15 -20z m4200 -16 c0 -26 -17 -33 -26 -9 -8
20 3 48 16 40 5 -3 10 -17 10 -31z m-21540 -65 c10 -18 9 -20 -7 -17 -10 2
-19 11 -21 21 -5 24 15 21 28 -4z m-3986 -211 c20 -28 21 -58 2 -58 -18 0 -46
38 -46 62 0 25 26 22 44 -4z m110 -20 c12 -34 4 -43 -23 -28 -27 14 -30 63 -4
58 10 -2 22 -15 27 -30z m16810 -14 c9 -22 8 -24 -9 -24 -8 0 -15 9 -15 20 0
24 15 27 24 4z m5949 -97 c2 -7 2 -36 -1 -65 -6 -69 -30 -71 -72 -5 -37 58
-37 63 -2 63 15 0 34 5 42 10 20 13 27 12 33 -3z m15261 -36 c71 -6 131 -13
133 -14 2 -2 -104 -7 -234 -10 -131 -4 -269 -12 -308 -17 -38 -6 -88 -12 -110
-15 -75 -7 -190 -35 -200 -48 -15 -21 -44 -33 -107 -47 -32 -7 -58 -17 -58
-22 0 -4 -8 -8 -17 -8 -9 0 -40 -13 -70 -30 -29 -16 -60 -30 -68 -30 -21 0
-91 -34 -132 -64 -18 -13 -49 -27 -69 -30 -20 -4 -46 -18 -59 -32 -12 -13 -24
-24 -27 -24 -3 0 -24 -18 -48 -40 -24 -22 -49 -40 -57 -40 -7 0 -13 -4 -13
-10 0 -5 -8 -10 -17 -10 -18 -1 -63 -33 -63 -45 0 -10 -54 -54 -67 -55 -7 0
-13 -4 -13 -10 0 -5 -6 -10 -12 -10 -7 0 -26 -11 -42 -25 -16 -14 -32 -25 -35
-25 -4 0 -14 -13 -24 -29 -9 -16 -33 -39 -52 -51 -19 -12 -35 -28 -35 -35 0
-8 -16 -27 -35 -42 -19 -15 -35 -36 -35 -46 0 -11 -9 -21 -20 -24 -12 -3 -19
-13 -17 -25 1 -11 -6 -25 -16 -32 -43 -27 -103 -90 -113 -119 -9 -27 -17 -33
-50 -37 -31 -4 -40 -10 -42 -27 -4 -26 20 -31 62 -12 20 9 29 9 41 -1 18 -15
20 -30 2 -30 -7 0 -22 -10 -34 -23 -11 -13 -40 -29 -65 -36 -46 -13 -68 -39
-68 -79 0 -9 -29 -48 -65 -87 -35 -38 -65 -74 -65 -80 0 -5 -22 -32 -47 -60
-26 -27 -46 -56 -45 -63 2 -6 -9 -17 -23 -24 -14 -6 -25 -19 -25 -30 0 -10 -4
-18 -10 -18 -5 0 -10 -6 -10 -14 0 -8 -4 -16 -8 -18 -16 -6 -91 -173 -94 -208
-3 -33 -5 -35 -35 -32 -27 3 -34 -2 -47 -26 -9 -17 -27 -38 -42 -49 -15 -11
-29 -33 -33 -53 -6 -30 -13 -37 -52 -50 -48 -16 -109 -68 -109 -92 0 -8 -11
-24 -25 -36 -14 -12 -25 -31 -25 -42 0 -11 -7 -20 -15 -20 -12 0 -13 -4 -3
-19 10 -16 7 -23 -14 -42 -32 -31 -40 -55 -22 -69 17 -15 17 -73 0 -123 -8
-21 -12 -46 -9 -57 3 -11 -2 -22 -15 -29 -20 -10 -42 -109 -42 -185 0 -20 -4
-36 -8 -36 -12 0 -42 -67 -42 -95 0 -14 -9 -34 -20 -45 -11 -11 -20 -27 -20
-35 0 -8 -9 -20 -20 -27 -11 -7 -20 -18 -20 -25 0 -6 -6 -13 -12 -16 -10 -3
-10 -10 1 -31 13 -24 13 -30 -2 -55 -9 -16 -17 -43 -17 -60 0 -30 -8 -41 -60
-82 -23 -17 -24 -20 -7 -29 24 -15 21 -27 -9 -34 -19 -5 -24 -11 -19 -26 5
-16 2 -20 -19 -20 -29 0 -34 -12 -35 -95 -2 -93 -13 -205 -20 -205 -4 0 -14
-15 -23 -33 -14 -29 -14 -40 -3 -83 8 -27 25 -71 39 -99 14 -27 26 -56 26 -62
0 -7 4 -13 9 -13 12 0 20 -45 11 -62 -12 -22 19 -198 40 -228 23 -33 25 -58 5
-84 -14 -19 -11 -72 6 -91 18 -19 9 -52 -16 -63 -15 -7 -25 -20 -25 -32 0 -12
-5 -31 -11 -42 -9 -17 -8 -24 6 -34 12 -9 16 -20 11 -39 -8 -31 11 -101 35
-133 10 -13 16 -29 13 -37 -6 -15 69 -123 92 -132 13 -5 13 -8 -1 -23 -15 -17
-14 -20 18 -44 19 -14 39 -26 46 -26 8 0 7 -7 -3 -23 -19 -28 -11 -63 15 -70
14 -4 19 -14 19 -41 0 -19 6 -39 13 -43 6 -4 19 -21 27 -38 8 -16 22 -39 31
-50 19 -22 51 -106 43 -114 -7 -8 -62 53 -109 123 -104 152 -197 323 -305 561
-26 58 -68 171 -103 276 -24 72 -29 92 -62 214 -9 33 -23 83 -31 111 -8 28
-14 67 -14 87 0 20 -4 47 -10 61 -5 14 -14 60 -20 103 -6 43 -15 105 -20 138
-6 33 -10 204 -11 380 0 327 9 459 47 630 9 39 22 102 30 140 35 165 155 533
203 623 5 9 41 81 80 159 178 360 479 761 746 993 149 130 187 161 240 201 91
69 208 147 325 217 113 67 352 192 369 192 5 0 40 14 78 32 69 32 220 88 306
113 26 8 71 21 100 30 28 9 72 20 97 25 25 4 88 17 140 29 256 57 604 77 904
52z m189 -18 c-7 -2 -19 -2 -25 0 -7 3 -2 5 12 5 14 0 19 -2 13 -5z m-23624
-215 c14 -35 -7 -48 -30 -19 -24 30 -24 41 1 41 12 0 24 -9 29 -22z m10101
-68 c4 -8 14 -30 23 -49 17 -32 16 -35 -4 -67 -22 -35 -37 -41 -69 -24 -27 14
-80 94 -80 120 0 31 27 36 55 10 l24 -23 7 27 c7 29 32 32 44 6z m-20196 -56
c4 -11 1 -14 -11 -12 -10 2 -19 11 -21 21 -4 21 24 13 32 -9z m-22135 -16 c8
-22 8 -35 1 -42 -16 -16 -64 18 -68 48 -3 23 0 26 26 26 25 0 32 -6 41 -32z
m41080 -2 c15 -18 11 -81 -5 -81 -6 0 -24 15 -39 34 -28 32 -28 34 -10 47 24
18 40 18 54 0z m10351 -110 c-15 -15 -34 9 -26 31 7 17 8 17 22 -1 9 -13 11
-23 4 -30z m-5290 -21 c0 -8 -4 -15 -9 -15 -5 0 -11 7 -15 15 -3 9 0 15 9 15
8 0 15 -7 15 -15z m-45230 -20 c15 -18 6 -45 -14 -45 -17 0 -28 24 -20 45 8
19 18 19 34 0z m1943 -96 c6 -22 -7 -33 -28 -25 -15 5 -20 37 -9 49 10 10 32
-4 37 -24z m44186 -83 c14 -48 9 -66 -16 -66 -41 0 -65 50 -43 91 19 34 44 23
59 -25z m-38027 -28 c22 -17 35 -88 17 -88 -24 0 -59 43 -59 72 0 30 16 36 42
16z m39213 -59 c4 -11 4 -23 1 -26 -8 -9 -47 28 -40 38 10 16 33 9 39 -12z
m-40984 1 c22 -12 27 -70 6 -70 -14 0 -37 40 -37 65 0 18 5 18 31 5z m37899
-70 c0 -10 -4 -21 -9 -24 -13 -9 -44 32 -37 49 8 22 46 1 46 -25z m-11532 -82
c14 -14 16 -48 3 -48 -17 0 -40 30 -35 45 7 18 16 19 32 3z m-16538 -17 c7
-13 7 -22 0 -26 -15 -9 -30 4 -30 26 0 25 16 25 30 0z m14662 -8 c20 -18 24
-48 6 -59 -14 -9 -48 31 -48 57 0 23 17 24 42 2z m-30962 -178 c13 -14 32 -25
42 -25 25 0 24 -42 -2 -65 -21 -19 -45 -17 -112 7 -43 15 -44 17 -22 61 28 55
57 61 94 22z m30994 -74 c33 -35 32 -66 -3 -66 -18 0 -30 11 -47 40 -29 50
-29 55 -1 55 13 0 36 -13 51 -29z m-1356 -39 c3 -19 -1 -23 -15 -20 -10 2 -19
14 -21 26 -3 19 1 23 15 20 10 -2 19 -14 21 -26z m23119 -59 c-9 -9 -19 -14
-23 -11 -10 10 6 28 24 28 15 0 15 -1 -1 -17z m-36558 -41 c13 -25 -4 -54 -19
-32 -13 19 -13 50 0 50 5 0 14 -8 19 -18z m2113 -14 c3 -7 3 -19 1 -26 -6 -16
-33 4 -33 24 0 17 26 18 32 2z m-7222 -193 c0 -8 -4 -15 -10 -15 -5 0 -10 7
-10 15 0 8 5 15 10 15 6 0 10 -7 10 -15z m26084 -17 c22 -31 20 -58 -3 -58
-11 0 -23 12 -31 29 -20 48 6 70 34 29z m-8480 -44 c6 -16 19 -15 58 1 25 10
35 -32 12 -50 -16 -11 -16 -15 -5 -29 12 -14 11 -19 -4 -36 -35 -38 -61 -24
-105 57 -19 35 -21 45 -10 58 16 20 46 19 54 -1z m-4 -189 c20 -21 21 -27 9
-41 -12 -15 -15 -14 -31 6 -18 23 -24 60 -10 60 5 0 19 -11 32 -25z m7754 -17
c17 -24 8 -42 -17 -33 -18 7 -30 32 -21 46 9 15 22 10 38 -13z m27354 -26 c3
-30 1 -33 -20 -30 -23 3 -34 27 -24 54 11 28 41 11 44 -24z m-56373 -20 c0
-18 -20 -15 -23 4 -3 10 1 15 10 12 7 -3 13 -10 13 -16z m4427 1 c22 -19 24
-53 3 -53 -16 0 -35 30 -35 54 0 20 9 20 32 -1z m25293 -133 c15 -28 11 -40
-11 -40 -19 0 -47 47 -40 65 8 21 34 8 51 -25z m-27056 -26 c21 -27 20 -44 -3
-44 -17 0 -49 47 -41 60 10 16 22 12 44 -16z m-1291 -16 c13 -16 19 -52 9 -55
-18 -7 -28 -1 -42 27 -8 16 -15 31 -15 35 0 10 38 5 48 -7z m23340 -17 c3 -8
-1 -12 -9 -9 -7 2 -15 10 -17 17 -3 8 1 12 9 9 7 -2 15 -10 17 -17z m-33392
-87 c-6 -16 -8 -16 -23 -2 -9 10 -13 23 -9 34 6 16 8 16 23 2 9 -10 13 -23 9
-34z m18994 10 c0 -31 -23 -28 -28 4 -2 15 2 22 12 22 11 0 16 -9 16 -26z
m20888 -68 c3 -12 -1 -17 -10 -14 -7 3 -15 13 -16 22 -3 12 1 17 10 14 7 -3
15 -13 16 -22z m5622 -37 c14 -26 12 -49 -5 -49 -19 0 -49 46 -41 65 7 18 33
9 46 -16z m18835 -89 c0 -13 -5 -25 -12 -27 -13 -5 -27 32 -18 47 11 18 30 5
30 -20z m-56166 -126 c24 -31 28 -74 6 -74 -21 0 -65 52 -65 77 0 32 33 30 59
-3z m18550 -44 c41 -22 50 -101 10 -85 -20 7 -53 71 -45 84 9 13 12 14 35 1z
m-6991 -63 c2 -15 -1 -27 -7 -27 -14 0 -33 38 -26 51 11 17 30 4 33 -24z
m14251 -3 c17 -28 19 -39 10 -50 -6 -8 -15 -14 -20 -14 -15 0 -61 70 -55 85
10 27 43 17 65 -21z m-30339 0 c0 -9 -5 -14 -12 -12 -18 6 -21 28 -4 28 9 0
16 -7 16 -16z m49540 -25 c0 -27 -2 -30 -15 -19 -24 20 -19 39 13 49 1 1 2
-13 2 -30z m-27146 -264 c20 -30 20 -45 1 -45 -16 0 -35 30 -35 54 0 23 15 19
34 -9z m9906 -147 c11 -12 20 -33 20 -46 0 -35 -31 -25 -52 17 -26 52 -6 70
32 29z m42770 -25 c-14 -28 -14 -28 -18 -5 -5 34 6 58 20 44 9 -9 8 -18 -2
-39z m-65254 12 c3 -8 3 -19 0 -24 -10 -16 -36 -1 -36 20 0 22 28 26 36 4z
m35738 -101 c9 -24 7 -64 -3 -64 -15 0 -53 59 -46 70 10 16 42 12 49 -6z
m-21587 -39 c17 -36 8 -65 -16 -50 -17 10 -43 64 -36 75 13 20 36 9 52 -25z
m-7277 -101 c0 -8 -4 -12 -10 -9 -5 3 -10 13 -10 21 0 8 5 12 10 9 6 -3 10
-13 10 -21z m17340 7 c17 -33 13 -71 -9 -71 -24 0 -65 55 -57 75 8 22 53 19
66 -4z m-33022 -93 c5 -7 13 -23 16 -35 6 -18 3 -23 -12 -23 -25 0 -56 35 -49
55 8 18 31 20 45 3z m27459 -50 c17 -22 22 -58 9 -58 -20 0 -49 38 -43 55 8
18 21 19 34 3z m30827 -126 c2 -4 0 -14 -5 -22 -8 -13 -10 -13 -18 0 -10 15
-6 30 9 30 5 0 11 -4 14 -8z m-14654 -182 c0 -5 -2 -10 -4 -10 -3 0 -8 5 -11
10 -3 6 -1 10 4 10 6 0 11 -4 11 -10z m30906 -154 c7 -19 -13 -56 -31 -56 -16
0 -31 43 -20 59 9 16 45 13 51 -3z m-33736 -73 c0 -32 -39 -31 -70 1 -26 29
-21 52 12 65 19 7 26 4 40 -18 10 -14 18 -36 18 -48z m22481 -34 c23 -23 22
-57 -4 -73 -23 -15 -37 6 -37 57 0 42 11 46 41 16z m-54833 -151 c4 -31 -9
-36 -32 -12 -24 23 -20 46 7 42 16 -2 23 -11 25 -30z m7922 -41 c0 -16 -35 -1
-38 16 -3 16 -1 17 17 5 12 -7 21 -17 21 -21z m41368 -81 c-4 -45 -30 -40 -40
9 -5 21 -6 46 -3 55 11 26 47 -28 43 -64z m-48773 -256 c3 -5 1 -10 -4 -10 -6
0 -11 5 -11 10 0 6 2 10 4 10 3 0 8 -4 11 -10z m47145 -41 c0 -20 -15 -26 -25
-9 -9 15 3 43 15 35 5 -3 10 -15 10 -26z m-45716 -20 c-3 -5 -10 -7 -15 -3 -5
3 -7 10 -3 15 3 5 10 7 15 3 5 -3 7 -10 3 -15z m-1136 -126 c3 -17 -2 -23 -16
-23 -18 0 -32 18 -32 42 0 21 45 3 48 -19z m48546 -65 c23 -30 24 -34 10 -60
-18 -34 -25 -35 -51 -5 -31 35 -34 44 -22 71 16 34 32 33 63 -6z m-60058 -83
c10 -26 -6 -38 -27 -19 -10 9 -16 21 -13 25 8 14 34 10 40 -6z m13978 -127
c14 -20 23 -78 12 -78 -30 0 -72 59 -62 86 8 21 33 17 50 -8z m-4778 -164 c13
-20 14 -28 5 -37 -10 -9 -18 -6 -37 16 -13 16 -22 33 -19 38 11 17 34 9 51
-17z m10942 -43 c16 -47 -16 -60 -36 -16 -17 36 -15 45 7 45 12 0 23 -11 29
-29z m11512 -42 c12 -22 7 -49 -9 -49 -15 0 -44 47 -36 60 10 17 34 11 45 -11z
m9498 -13 c3 -12 -1 -17 -10 -14 -7 3 -15 13 -16 22 -3 12 1 17 10 14 7 -3 15
-13 16 -22z m-30256 -53 c31 -28 20 -71 -16 -57 -18 7 -31 47 -21 63 9 15 15
14 37 -6z m14836 5 c5 -7 13 -23 16 -35 9 -29 -19 -32 -34 -4 -20 39 -7 69 18
39z m-28259 -34 c40 -51 16 -98 -26 -50 -23 27 -30 56 -16 69 11 12 21 8 42
-19z m15738 -38 c-4 -9 -11 -16 -17 -16 -15 0 -24 26 -16 47 6 15 8 15 23 1 9
-9 13 -24 10 -32z m29773 5 c14 -28 12 -51 -5 -51 -20 0 -55 40 -48 56 8 20
41 17 53 -5z m-27912 -15 c3 -12 -1 -17 -10 -14 -7 3 -15 13 -16 22 -3 12 1
17 10 14 7 -3 15 -13 16 -22z m44306 -2 c20 -29 18 -53 -6 -67 -24 -16 -48 8
-48 48 0 52 27 62 54 19z m-27084 -117 c33 -2 35 -4 38 -39 3 -41 -12 -78 -31
-78 -11 0 -71 64 -91 98 -11 19 4 34 28 27 11 -4 37 -8 56 -8z m-25576 -83 c3
-9 3 -20 0 -25 -8 -13 -34 9 -34 27 0 19 26 18 34 -2z m19734 -12 c4 -25 -13
-30 -22 -6 -9 25 -7 36 7 32 6 -3 13 -14 15 -26z m-11012 1 c17 -23 18 -43 1
-43 -11 0 -37 39 -37 55 0 12 24 3 36 -12z m-8139 -55 c40 -28 43 -35 34 -79
-9 -44 -38 -49 -79 -14 -39 33 -52 83 -26 102 24 18 32 17 71 -9z m17723 -125
c0 -18 -15 -17 -34 3 -17 17 -20 27 -9 37 9 9 43 -22 43 -40z m12784 22 c21
-32 20 -45 -4 -45 -22 0 -55 43 -45 60 11 17 32 11 49 -15z m-31346 -118 c2
-10 -3 -17 -12 -17 -10 0 -16 9 -16 21 0 24 23 21 28 -4z m20315 -69 c9 -7 19
-32 23 -55 6 -39 5 -43 -15 -43 -25 0 -76 72 -67 95 7 18 36 20 59 3z m10527
-12 c0 -14 5 -28 10 -31 15 -9 12 -41 -5 -55 -21 -18 -61 10 -80 56 -19 46
-20 42 13 47 59 9 62 8 62 -17z m-1978 -43 c26 -23 24 -55 -3 -51 -27 4 -44
30 -36 52 8 20 16 20 39 -1z m-9932 -23 c0 -5 -5 -10 -11 -10 -5 0 -7 5 -4 10
3 6 8 10 11 10 2 0 4 -4 4 -10z m10080 -41 c10 -18 9 -20 -7 -17 -10 2 -19 11
-21 21 -5 24 15 21 28 -4z m-21662 -75 c24 -16 29 -48 10 -60 -14 -9 -48 31
-48 57 0 23 9 24 38 3z m1632 -15 c0 -5 -4 -9 -10 -9 -5 0 -10 7 -10 16 0 8 5
12 10 9 6 -3 10 -10 10 -16z m12648 -34 c8 -16 8 -26 1 -31 -15 -9 -49 25 -42
42 8 22 29 17 41 -11z m6412 -121 c26 -68 -10 -89 -54 -31 -35 45 -33 57 9 57
29 0 37 -5 45 -26z m-22130 -130 c0 -7 -5 -16 -10 -19 -11 -7 -31 35 -23 48 6
11 33 -12 33 -29z m-8810 -35 c36 -19 40 -25 40 -58 0 -63 -38 -80 -77 -35
-35 41 -43 114 -13 114 5 0 28 -9 50 -21z m29596 -37 c19 -13 38 -72 26 -84
-16 -16 -72 28 -72 56 0 34 20 46 46 28z m-11618 -34 c19 -19 15 -48 -7 -48
-20 0 -37 32 -26 50 8 13 18 13 33 -2z m30177 -99 c11 -34 -11 -47 -36 -22
-12 11 -18 26 -15 32 12 19 44 12 51 -10z m-14995 -105 c36 -58 -8 -77 -46
-20 -18 28 -13 56 10 56 8 0 24 -16 36 -36z m-21398 9 c19 -23 42 -82 35 -90
-16 -15 -59 10 -73 42 -22 54 4 88 38 48z m-9511 -25 c19 -23 24 -49 13 -61
-10 -10 -42 11 -60 38 -29 44 12 64 47 23z m9096 -65 c21 -36 23 -44 10 -49
-17 -6 -73 30 -81 53 -9 22 5 44 26 41 11 -2 31 -22 45 -45z m2268 -174 c10
-31 -12 -49 -31 -25 -8 11 -14 26 -14 33 0 21 38 15 45 -8z m10941 -4 c18 -28
13 -55 -10 -55 -15 0 -46 48 -46 70 0 20 40 10 56 -15z m-26791 -235 c19 -21
14 -50 -9 -50 -17 0 -36 29 -36 54 0 22 23 20 45 -4z m28018 -180 c16 0 27
-11 39 -40 15 -36 15 -42 2 -55 -20 -20 -45 -6 -73 39 -25 41 -28 71 -5 62 9
-3 25 -6 37 -6z m28452 -30 c6 -20 -10 -60 -24 -60 -5 0 -14 7 -21 15 -10 12
-10 21 -2 40 14 30 38 33 47 5z m-44441 -111 c22 -13 33 -26 29 -35 -3 -8 0
-14 6 -14 13 0 14 -39 2 -59 -8 -12 -19 -13 -57 -5 l-48 9 -2 50 c-2 47 8 75
27 75 4 0 24 -9 43 -21z m34096 -55 c0 -32 -5 -46 -18 -53 -15 -8 -26 -3 -55
27 -21 21 -37 43 -37 49 0 6 17 20 38 31 33 18 39 18 55 4 11 -10 17 -30 17
-58z m-27592 -116 c13 -22 13 -29 3 -42 -26 -31 -51 -19 -76 36 -18 39 -21 55
-13 65 9 11 16 9 40 -9 16 -13 37 -35 46 -50z m-16858 -19 c0 -6 -4 -7 -10 -4
-5 3 -10 11 -10 16 0 6 5 7 10 4 6 -3 10 -11 10 -16z m-4350 -84 c14 -17 10
-47 -7 -52 -15 -5 -47 42 -38 57 9 14 31 12 45 -5z m42464 -36 c16 -28 17 -33
3 -46 -20 -20 -45 -10 -58 23 -21 58 24 76 55 23z m-32442 -186 c21 -19 23
-36 5 -52 -16 -13 -40 9 -51 47 -9 27 18 31 46 5z m-148 -87 c15 -31 16 -40 5
-46 -19 -12 -45 5 -56 37 -22 64 21 71 51 9z m28032 19 c13 -20 13 -27 -2 -59
-10 -20 -25 -36 -33 -36 -23 0 -91 71 -91 95 0 18 6 21 56 21 47 1 58 -2 70
-21z m-22126 -65 c13 -24 5 -41 -15 -33 -16 6 -21 53 -5 53 5 0 14 -9 20 -20z
m12627 -97 c7 -18 9 -34 4 -37 -14 -9 -61 34 -61 55 0 33 41 20 57 -18z
m-17177 -63 c25 -50 25 -70 0 -70 -23 0 -60 53 -60 88 0 38 37 28 60 -18z
m20048 -122 c17 -17 15 -48 -3 -48 -14 0 -35 29 -35 49 0 15 23 14 38 -1z
m-14170 -83 c10 -22 15 -24 32 -15 26 14 40 5 40 -25 0 -13 5 -27 10 -30 16
-10 12 -23 -17 -50 -41 -38 -69 -42 -99 -14 -13 12 -24 28 -24 35 0 7 -12 21
-27 32 l-27 20 36 36 c43 43 61 45 76 11z m34260 -153 c2 -12 -1 -22 -6 -22
-15 0 -34 28 -27 40 10 17 30 6 33 -18z m-47018 -40 c22 -18 52 -87 42 -97
-12 -12 -40 -4 -60 18 -30 31 -43 72 -29 86 15 15 21 14 47 -7z m-3786 -38
c10 -27 7 -54 -7 -54 -20 0 -37 22 -37 47 0 27 34 33 44 7z m37806 -125 c0
-12 -27 -11 -35 1 -11 17 5 32 21 19 8 -6 14 -15 14 -20z m7500 -25 c15 -37
12 -70 -6 -85 -14 -11 -20 -7 -49 27 -19 21 -34 42 -35 46 0 9 50 37 68 38 7
0 17 -12 22 -26z m-39985 -59 c0 -28 -29 -25 -33 3 -3 19 0 23 15 20 10 -2 18
-12 18 -23z m12665 -85 c0 -11 -7 -20 -15 -20 -8 0 -15 9 -15 20 0 11 7 20 15
20 8 0 15 -9 15 -20z m15638 -17 c7 -21 13 -46 13 -56 0 -29 -40 -77 -65 -77
-27 0 -65 39 -81 83 -7 17 -16 40 -20 49 -10 24 20 34 51 17 21 -11 27 -10 41
4 27 27 47 20 61 -20z m29006 -164 c24 -28 25 -32 11 -58 -22 -43 -41 -45 -64
-7 -25 40 -26 54 -4 78 22 24 27 23 57 -13z m-63436 9 c7 -7 12 -20 12 -31 0
-32 -44 -18 -48 16 -4 29 14 37 36 15z m14626 -131 c8 -12 7 -20 -2 -29 -16
-16 -47 13 -38 37 7 19 25 16 40 -8z m26567 -33 c94 -28 93 -30 -9 -26 -111 5
-178 -10 -302 -67 -110 -50 -226 -178 -251 -277 -7 -25 -18 -46 -28 -49 -47
-15 -78 -168 -61 -310 14 -125 35 -179 110 -278 22 -28 37 -53 35 -55 -10 -10
-56 31 -98 85 -139 182 -165 431 -65 642 32 67 56 100 121 165 45 45 107 94
137 110 126 67 301 93 411 60z m-4816 -148 c23 -34 16 -80 -12 -84 -35 -5 -90
78 -66 101 16 17 63 6 78 -17z m19626 -58 c25 -31 24 -65 -2 -79 -41 -22 -91
55 -57 89 18 18 38 15 59 -10z m-48119 -95 c22 -20 24 -63 3 -63 -19 0 -49 46
-41 65 7 19 15 19 38 -2z m9048 -55 c24 -40 25 -48 3 -48 -35 0 -68 52 -46 73
13 13 23 7 43 -25z m18078 -66 c19 -26 11 -66 -14 -70 -26 -4 -64 44 -64 78 0
20 4 22 33 16 17 -3 38 -14 45 -24z m-32002 -252 c8 0 3 -52 -6 -71 -23 -42
-90 -9 -90 45 0 47 16 58 58 41 19 -8 36 -15 38 -15z m3602 -62 c4 -34 -11
-36 -32 -6 -22 31 -20 40 7 36 16 -2 23 -11 25 -30z m35052 -108 c-15 -28 -23
-20 -14 15 4 17 10 23 16 17 6 -6 6 -18 -2 -32z m-7625 -48 c0 -18 -20 -15
-23 4 -3 10 1 15 10 12 7 -3 13 -10 13 -16z m-9154 -28 c5 -15 7 -29 4 -33
-11 -10 -40 15 -43 38 -5 31 26 27 39 -5z m10391 -18 c11 -26 5 -56 -11 -56
-11 0 -41 51 -41 70 0 21 41 10 52 -14z m-2702 -128 c35 -38 21 -70 -18 -42
-22 15 -31 64 -12 64 5 0 18 -10 30 -22z m2050 -208 c21 -21 27 -65 10 -75
-14 -8 -56 19 -70 44 -24 45 22 69 60 31z m-21248 -87 c18 -17 25 -58 10 -67
-15 -9 -52 25 -52 48 0 38 14 45 42 19z m-4794 -41 c3 -17 -2 -22 -17 -22 -16
0 -21 6 -21 26 0 33 33 30 38 -4z m13443 -124 c24 -20 49 -65 49 -88 0 -30
-27 -25 -66 14 -35 35 -44 70 -21 79 19 8 22 8 38 -5z m-8569 -45 c22 -20 24
-63 3 -63 -17 0 -49 56 -40 70 9 14 16 13 37 -7z m-6842 -23 c7 -13 5 -22 -6
-31 -14 -11 -18 -10 -30 6 -15 20 -18 38 -8 48 9 9 34 -4 44 -23z m36975 9 c4
-12 2 -26 -5 -33 -9 -8 -16 -5 -31 13 -10 12 -16 27 -13 32 10 17 43 9 49 -12z
m18090 -328 c13 -27 13 -31 -4 -52 -16 -20 -21 -21 -35 -10 -29 24 -15 86 21
91 1 0 9 -13 18 -29z m-39289 -206 c19 -45 18 -55 -5 -55 -23 0 -61 45 -61 71
0 14 7 19 26 19 19 0 28 -8 40 -35z m2576 -32 c31 -28 21 -71 -12 -53 -21 11
-31 35 -24 55 8 19 13 19 36 -2z m16372 -75 c23 -32 20 -65 -6 -79 -19 -10
-25 -8 -50 20 -32 36 -34 44 -12 65 22 22 50 20 68 -6z m12364 -33 c4 -18 -13
-35 -35 -35 -16 0 -17 32 -1 48 16 16 32 10 36 -13z m-50396 -10 c0 -5 -5 -11
-11 -13 -6 -2 -11 4 -11 13 0 9 5 15 11 13 6 -2 11 -8 11 -13z m32667 -134
c29 -41 28 -63 -5 -59 -29 3 -60 47 -51 72 10 25 33 19 56 -13z m-14795 -36
c26 -26 44 -71 33 -82 -23 -23 -97 46 -97 91 0 24 36 19 64 -9z m-16759 -36
c13 -39 -26 -55 -45 -18 -8 15 -8 24 0 34 14 17 37 9 45 -16z m1783 9 c20 -20
14 -38 -13 -38 -20 0 -25 5 -25 25 0 27 18 33 38 13z m47137 -65 c15 -36 15
-38 -9 -61 -27 -28 -56 -24 -56 8 0 11 -4 20 -10 20 -16 0 -12 32 7 52 26 29
51 22 68 -19z m-36520 -16 c24 -37 24 -71 -1 -75 -33 -5 -60 36 -55 86 2 20
40 13 56 -11z m912 -66 c30 -45 31 -73 1 -69 -26 4 -84 81 -73 98 12 20 49 6
72 -29z m27285 -16 c8 -19 8 -28 -2 -40 -7 -8 -15 -15 -19 -15 -11 0 -41 61
-35 71 11 18 45 9 56 -16z m-31093 -31 c38 -48 17 -83 -25 -43 -23 22 -31 49
-17 62 11 12 21 8 42 -19z m18949 -137 c2 -10 -3 -17 -11 -17 -16 0 -30 24
-19 34 10 10 27 1 30 -17z m-504 -353 c19 -19 21 -54 3 -54 -20 0 -37 22 -37
47 0 27 12 29 34 7z m24076 -5 c13 -24 -2 -49 -31 -49 -22 0 -35 36 -19 55 17
21 37 19 50 -6z m-4960 -335 c0 -8 -9 -14 -20 -14 -22 0 -28 26 -7 33 16 6 27
-1 27 -19z m-15660 -106 c11 -18 18 -37 17 -43 -7 -20 -50 -10 -70 17 -17 22
-18 30 -7 43 19 23 38 18 60 -17z m-13412 -129 c31 -11 42 -32 42 -81 0 -23
-4 -28 -25 -28 -16 0 -28 7 -31 18 -3 9 -12 31 -21 49 -8 17 -12 36 -9 42 9
13 6 13 44 0z m-19378 -145 c0 -16 -26 -19 -35 -4 -4 6 -4 18 -1 27 5 12 9 13
21 3 8 -7 15 -19 15 -26z m2990 -51 c25 -32 23 -58 -5 -58 -23 0 -51 45 -42
68 9 24 22 21 47 -10z m66452 -85 c-7 -7 -12 -8 -12 -2 0 14 12 26 19 19 2 -3
-1 -11 -7 -17z m-42608 -110 c1 -1 8 -20 15 -41 11 -34 11 -41 -5 -58 -13 -14
-28 -19 -53 -17 -35 3 -36 5 -43 53 -9 58 2 73 52 69 17 -1 32 -4 34 -6z
m-566 -250 c14 -14 16 -54 4 -62 -13 -8 -28 7 -40 42 -10 28 -9 32 7 32 9 0
22 -5 29 -12z m-6800 -36 c4 -25 -13 -30 -22 -6 -9 25 -7 36 7 32 6 -3 13 -14
15 -26z m22757 8 c0 -22 -39 -19 -43 3 -3 15 1 18 20 15 12 -2 23 -10 23 -18z
m-18317 -188 c4 -24 -7 -29 -26 -10 -18 18 -15 40 6 36 9 -2 18 -13 20 -26z
m19489 -34 c19 -24 23 -75 8 -88 -21 -18 -45 -5 -38 20 4 16 2 19 -11 14 -27
-10 -33 26 -7 48 27 21 35 22 48 6z m-13225 -57 c30 -75 -30 -102 -77 -34 -38
57 -34 73 18 73 42 0 45 -2 59 -39z m-12119 -20 c29 -49 18 -89 -18 -63 -21
14 -52 67 -48 80 9 23 48 13 66 -17z m-3115 -13 c16 -16 15 -48 -1 -48 -16 0
-40 38 -32 50 8 13 19 12 33 -2z m-16234 -209 c33 -26 37 -79 6 -79 -12 0 -28
13 -40 33 -38 61 -19 87 34 46z m7418 -196 c22 -19 24 -59 3 -66 -15 -6 -55
36 -55 58 0 28 25 33 52 8z m-2406 -11 c6 -4 19 -22 30 -40 16 -28 17 -34 4
-42 -20 -12 -49 6 -61 37 -15 40 -1 64 27 45z m-5644 -479 c24 -22 24 -53 -2
-53 -22 0 -44 34 -36 56 7 18 15 18 38 -3z m56958 -22 c0 -21 -13 -41 -26 -41
-15 0 -17 10 -8 34 7 17 34 22 34 7z m-38636 -42 c19 -32 16 -59 -7 -59 -20 0
-36 21 -43 58 -6 27 -3 32 13 32 10 0 27 -13 37 -31z m-11844 -76 c28 -36 23
-68 -10 -68 -19 0 -29 9 -43 37 -10 21 -16 42 -12 48 11 19 43 10 65 -17z
m6095 -123 c3 -5 -1 -10 -9 -10 -9 0 -16 5 -16 10 0 6 4 10 9 10 6 0 13 -4 16
-10z m-3181 -26 c18 -18 19 -24 7 -43 -12 -19 -39 -7 -50 21 -15 39 13 53 43
22z m-3047 -178 c1 -1 3 -23 5 -50 6 -87 -51 -85 -88 3 -22 51 -13 64 39 56
23 -4 43 -8 44 -9z m7724 -37 c13 -27 17 -45 11 -51 -15 -15 -48 7 -59 39 -22
63 17 73 48 12z m4 -119 c4 -6 4 -18 1 -27 -5 -12 -9 -13 -21 -3 -8 7 -15 19
-15 26 0 16 26 19 35 4z m-3718 -66 c8 -22 -18 -37 -36 -20 -7 8 -10 19 -7 25
10 16 36 13 43 -5z m7707 -30 c21 -8 52 -72 40 -84 -27 -27 -85 36 -70 75 6
17 8 17 30 9z m21720 -46 c22 -35 29 -90 14 -110 -7 -10 -29 -19 -48 -20 -32
-3 -35 0 -38 26 -2 16 -10 36 -18 44 -20 20 -13 46 13 50 12 2 27 10 33 18 17
20 27 18 44 -8z m-15964 -240 c19 -35 4 -56 -29 -39 -27 15 -31 74 -4 69 10
-2 24 -15 33 -30z m17250 -88 c6 0 30 -52 30 -66 0 -10 -34 -34 -48 -34 -19 0
-52 51 -52 80 0 19 24 31 48 24 8 -2 17 -4 22 -4z m-35272 -33 c2 -10 -3 -17
-12 -17 -10 0 -16 9 -16 21 0 24 23 21 28 -4z m59915 -97 c32 -39 55 -75 52
-80 -4 -6 -19 -10 -35 -10 -15 0 -30 -7 -34 -15 -11 -28 -35 -16 -46 24 -6 25
-17 41 -30 44 -35 9 -17 107 19 107 9 0 43 -32 74 -70z m-41991 -37 c20 -18
25 -63 6 -63 -24 0 -38 16 -44 48 -7 37 8 43 38 15z m38200 -160 c22 -20 23
-51 2 -81 -20 -29 -36 -18 -32 21 2 26 -1 31 -15 29 -20 -3 -23 18 -5 36 16
16 28 15 50 -5z m-6112 -18 c10 -12 9 -16 -5 -21 -19 -8 -40 9 -31 25 10 15
21 14 36 -4z m-51002 -57 c18 -18 14 -38 -7 -38 -20 0 -35 25 -25 41 7 12 18
11 32 -3z m57256 -42 c40 -47 44 -61 21 -70 -8 -3 -20 -17 -25 -31 -8 -21 -13
-24 -29 -16 -15 8 -20 25 -23 78 -7 100 2 106 56 39z m-58194 -283 c28 -16 31
-22 26 -52 -3 -19 -9 -38 -15 -44 -12 -12 -69 42 -72 68 -4 51 8 57 61 28z
m26059 -207 c18 -21 23 -62 9 -74 -20 -16 -78 31 -78 63 0 34 44 41 69 11z
m-20995 -58 c27 -39 17 -75 -17 -62 -19 7 -41 59 -32 73 10 18 33 13 49 -11z
m4194 3 c3 -8 -1 -12 -9 -9 -7 2 -15 10 -17 17 -3 8 1 12 9 9 7 -2 15 -10 17
-17z m49729 -123 c18 -18 33 -37 33 -43 0 -14 -68 -47 -81 -40 -5 4 -9 13 -9
21 0 8 -7 17 -15 20 -20 8 -19 33 2 56 22 25 32 23 70 -14z m-57301 -114 c12
-18 14 -28 6 -36 -23 -23 -61 14 -48 47 8 22 23 18 42 -11z m4292 10 c16 -11
22 -25 22 -55 0 -37 -2 -39 -29 -39 -36 0 -37 2 -46 63 -7 42 -5 47 12 47 10
0 29 -7 41 -16z m-748 -244 c11 -11 20 -31 20 -45 0 -37 -35 -33 -59 6 -32 52
-3 81 39 39z m371 -151 c28 -28 23 -83 -9 -87 -18 -3 -26 5 -43 42 -11 26 -17
51 -14 56 10 17 44 11 66 -11z m333 -1 c21 -30 20 -38 -4 -38 -21 0 -40 27
-33 48 7 18 20 15 37 -10z m25528 -40 c24 -19 27 -52 5 -56 -25 -5 -47 16 -47
44 0 26 17 31 42 12z m-26084 -170 c2 -19 -1 -28 -10 -28 -20 0 -38 21 -38 43
0 32 44 18 48 -15z m14402 -320 c49 -80 -8 -110 -58 -31 -27 42 -23 63 13 63
18 0 31 -10 45 -32z m-14236 -74 c10 -26 7 -34 -13 -34 -20 0 -35 25 -25 41 9
14 31 10 38 -7z m13671 -15 c18 -33 14 -59 -8 -59 -24 0 -47 24 -53 58 -6 29
-4 32 19 32 19 0 31 -8 42 -31z m20736 -220 c16 -8 18 -13 8 -25 -22 -27 -57
-10 -45 21 6 18 11 18 37 4z m-13680 -26 c24 -63 -23 -88 -55 -29 -21 39 -15
56 20 56 17 0 27 -8 35 -27z m-4271 -134 c20 -37 20 -42 6 -64 -9 -14 -16 -31
-16 -38 0 -17 -38 -67 -51 -67 -5 0 -9 14 -9 30 0 37 -17 39 -30 4 -7 -19 -16
-25 -33 -22 -19 3 -22 8 -20 44 1 22 9 66 18 97 l16 57 50 0 c47 0 49 -1 69
-41z m-16346 -38 c18 -20 19 -62 1 -68 -19 -6 -45 21 -51 55 -6 27 -4 32 13
32 11 0 28 -9 37 -19z m11085 -67 c23 -29 28 -69 10 -80 -29 -18 -85 54 -71
94 7 21 40 13 61 -14z"/>
<path d="M21255 40149 c-9 -14 -2 -20 14 -10 8 6 9 11 3 15 -6 3 -14 1 -17 -5z"/>
<path d="M21008 39844 c-4 -3 -39 -6 -77 -5 -64 1 -71 -1 -71 -18 0 -26 25
-33 113 -33 54 0 76 -4 88 -16 9 -10 27 -24 39 -32 13 -8 30 -23 38 -32 12
-13 19 -14 29 -6 18 14 17 22 -9 78 -20 44 -25 49 -63 53 -22 2 -49 8 -60 11
-11 4 -24 4 -27 0z"/>
<path d="M19951 39621 c-9 -6 -10 -11 -2 -15 13 -8 31 1 31 15 0 11 -11 11
-29 0z"/>
<path d="M20100 39610 c18 -33 58 -58 86 -52 l26 5 -21 20 c-11 12 -39 26 -61
33 -37 11 -39 11 -30 -6z"/>
<path d="M21040 39592 c0 -21 7 -32 28 -43 15 -8 32 -20 38 -28 18 -23 25 12
8 40 -7 13 -17 32 -20 42 -4 10 -17 17 -30 17 -20 0 -24 -5 -24 -28z"/>
<path d="M20248 39568 c-24 -8 -26 -12 -14 -24 11 -10 21 -12 40 -4 48 18 23
45 -26 28z"/>
<path d="M19385 39550 c-3 -5 -1 -10 4 -10 6 0 11 5 11 10 0 6 -2 10 -4 10 -3
0 -8 -4 -11 -10z"/>
<path d="M20636 39513 c-8 -20 -3 -25 18 -17 20 8 21 20 2 27 -8 3 -17 -1 -20
-10z"/>
<path d="M19853 39502 c-6 -4 -13 -21 -15 -37 -3 -29 -1 -30 47 -36 92 -11
111 14 46 58 -35 24 -57 28 -78 15z"/>
<path d="M20900 39490 c0 -5 5 -10 11 -10 5 0 7 5 4 10 -3 6 -8 10 -11 10 -2
0 -4 -4 -4 -10z"/>
<path d="M21018 39463 c7 -3 16 -2 19 1 4 3 -2 6 -13 5 -11 0 -14 -3 -6 -6z"/>
<path d="M20012 39355 c-16 -35 -15 -55 3 -55 17 0 46 -15 84 -42 25 -19 51
-24 51 -10 0 10 -112 132 -121 132 -3 0 -11 -11 -17 -25z"/>
<path d="M22050 39021 c0 -4 8 -13 18 -21 15 -13 20 -13 41 7 l24 23 -41 -2
c-23 -1 -42 -4 -42 -7z"/>
<path d="M21950 38890 c0 -5 5 -10 10 -10 6 0 10 5 10 10 0 6 -4 10 -10 10 -5
0 -10 -4 -10 -10z"/>
<path d="M22196 38833 c-3 -4 -6 -15 -6 -25 0 -20 25 -25 33 -5 5 14 -17 39
-27 30z"/>
<path d="M22220 38571 c0 -5 -13 -12 -29 -16 -17 -4 -31 -14 -34 -26 -3 -11
-14 -23 -25 -26 -11 -2 -24 -15 -30 -29 -6 -13 -23 -26 -37 -30 -31 -8 -33
-32 -3 -43 31 -11 58 -2 58 20 0 10 11 26 25 35 19 12 23 22 19 40 -6 24 9 34
21 14 10 -16 54 22 55 48 0 12 -4 22 -10 22 -5 0 -10 -4 -10 -9z"/>
<path d="M22165 38109 c-16 -4 -51 -11 -77 -14 -32 -4 -48 -11 -48 -21 0 -13
25 -20 60 -15 8 1 26 3 40 5 14 1 42 9 62 16 33 12 35 15 20 26 -19 15 -17 15
-57 3z"/>
<path d="M21841 37904 c0 -11 3 -14 6 -6 3 7 2 16 -1 19 -3 4 -6 -2 -5 -13z"/>
<path d="M20390 37371 c0 -6 4 -13 10 -16 6 -3 7 1 4 9 -7 18 -14 21 -14 7z"/>
<path d="M20705 40030 c-3 -5 -1 -10 4 -10 6 0 11 5 11 10 0 6 -2 10 -4 10 -3
0 -8 -4 -11 -10z"/>
<path d="M22721 39668 c-1 -12 -6 -15 -17 -11 -16 6 -64 -36 -64 -55 0 -26 54
-22 64 4 3 8 12 14 21 14 17 0 18 14 5 45 -7 17 -9 17 -9 3z"/>
<path d="M64976 1834 c-9 -22 -8 -24 9 -24 8 0 15 6 15 14 0 22 -17 28 -24 10z"/>
</g>
</svg>
